<?xml version="1.0" encoding="utf-8"?>
<!-- Generator: Adobe Illustrator 27.5.0, SVG Export Plug-In . SVG Version: 6.00 Build 0)  -->
<svg version="1.1" xmlns="http://www.w3.org/2000/svg" xmlns:xlink="http://www.w3.org/1999/xlink" x="0px" y="0px"
	 viewBox="0 0 1200 1200" style="enable-background:new 0 0 1200 1200;" xml:space="preserve">
<g id="Background">
	<rect style="fill:#F5F4F3;" width="1200" height="1200"/>
</g>
<g id="Graphic_Elements">
	<g id="Graphic_Elements_1_">
		<path d="M790.856,377.39c-0.086-0.356-0.141-0.717-0.199-1.079c-0.144-0.92-0.294-1.867-0.855-2.747
			c0.012-0.365-0.101-0.711-0.331-1.021c-0.5-1.904-1.401-3.657-2.753-5.346c-0.04-0.76-0.466-1.306-0.815-1.753l-0.546-0.736
			c-0.441-0.601-0.861-1.171-1.153-1.809c-0.043-0.092-0.104-0.175-0.181-0.242c-0.162-0.138-0.291-0.316-0.426-0.487
			c-0.331-0.426-0.797-1.027-1.603-1.171l0.021-0.601c0.006-0.175-0.052-0.346-0.166-0.478l-0.763-0.892
			c-0.043-0.052-0.141-0.107-0.242-0.156c-0.604-0.834-1.358-1.493-2.088-2.13c-0.687-0.598-1.33-1.162-1.818-1.83
			c-0.886-1.217-2.066-1.864-3.203-2.492c-0.583-0.322-1.134-0.622-1.631-0.993c-2.474-1.842-5.233-3.166-7.988-3.835
			c-0.365-0.273-0.769-0.411-1.131-0.53c-0.441-0.15-0.723-0.251-0.917-0.49c-0.258-0.313-0.57-0.297-0.828-0.184
			c-0.251-0.31-0.687-0.696-1.309-0.524l-0.846,0.043c-1.134-1.082-2.513-1.591-3.853-2.084c-0.383-0.141-0.766-0.285-1.143-0.438
			c-0.558-0.466-1.199-0.662-1.781-0.527c-0.331-0.028-0.699-0.159-1.094-0.356c-0.251-0.123-0.503-0.242-0.763-0.331
			c-0.677-0.506-1.68-1.189-3.004-0.889c-0.083,0.021-0.199,0.012-0.218,0.006c-1.94-1.223-4.089-1.652-6.167-2.066
			c-0.53-0.107-1.061-0.211-1.425-0.273c-1.867-0.941-3.868-1.352-5.803-1.75c-0.73-0.15-1.459-0.3-2.182-0.478
			c-0.392-0.346-0.871-0.53-1.428-0.555c-0.38-0.319-0.849-0.423-1.312-0.267c-0.742-0.625-1.566-1.088-2.366-1.536l-0.365-0.205
			c-3.384-1.91-5.545-4.065-6.774-6.762c0.104-0.383,0.19-0.999-0.172-1.612v-0.987c0.23-0.346,0.261-0.714,0.254-0.944
			c0.34-0.969,0.38-1.861,0.116-2.719c0.074-0.334,0.138-0.769-0.055-1.214c0.037-1.517,0.043-3.117-0.227-4.699
			c0.175-0.635,0.282-1.413-0.098-2.204c0.052-0.87-0.316-1.569-0.702-2.164c-0.037-0.291-0.07-0.582-0.101-0.874
			c-0.199-1.753-0.402-3.568-1.37-5.239c-0.414-0.717-0.815-1.438-1.22-2.158l-0.349-0.607c-0.527-1.438-1.493-3.415-3.832-4.199
			c-0.025-0.034-0.049-0.068-0.074-0.104c-0.248-0.349-0.641-0.901-1.392-0.962c-0.175-0.153-0.395-0.313-0.677-0.405
			c-0.04-0.04-0.086-0.08-0.135-0.113c-0.196-0.34-0.466-0.53-0.705-0.634c-0.506-0.417-1.085-0.644-1.6-0.849
			c-0.362-0.144-0.705-0.279-1.002-0.466c-0.674-0.42-1.275-0.193-1.735,0.074c-1.088-0.307-2.323-0.536-3.586-0.12
			c-0.886-0.205-1.646,0.113-2.265,0.383c-0.457,0.193-0.871,0.353-1.232,0.343c-0.586-0.015-0.999,0.451-1.352,0.88
			c-0.101,0.123-0.199,0.245-0.297,0.343l-0.561,0.564c-1.008,0.27-1.796,0.849-2.602,1.484c-0.665-0.04-1.091,0.386-1.364,0.647
			c-0.04,0.04-0.08,0.077-0.12,0.11c-1.018-0.095-1.349,0.754-1.493,1.088c-0.015,0.034-0.031,0.07-0.046,0.101
			c-1.631,0.561-3.55,1.321-4.132,3.678c-0.028,0.08-0.224,0.267-0.343,0.377c-0.126,0.12-0.251,0.239-0.362,0.371l-1.753,2.072
			c-0.303,0.362-0.408,0.785-0.31,1.208c-0.04,0.046-0.08,0.089-0.123,0.135c-0.411,0.444-0.91,0.984-1.064,1.769
			c-0.015,0.012-0.031,0.025-0.043,0.034c-0.236,0.163-0.723,0.5-0.739,1.128c-0.966,0.929-1.775,2.115-1.238,3.847
			c0.043,0.135,0.012,0.383-0.015,0.622c-0.003,0.043-0.009,0.089-0.012,0.135c-1.012,0.831-1.005,1.999-0.935,2.937
			c-0.104,0.202-0.144,0.423-0.113,0.644c-0.11,0.144-0.23,0.288-0.352,0.432c-0.564,0.681-1.149,1.385-1.002,2.167
			c0.113,0.619,0.025,1.238-0.07,1.891c-0.101,0.708-0.208,1.441-0.074,2.235c0.254,1.53,0.147,3.102-0.003,4.574
			c-0.144,1.392-0.307,2.961,0.294,4.481c-0.086,0.8-0.113,1.888,0.307,2.977c-0.147,0.257-0.214,0.521-0.199,0.797
			c-0.352,0.769-0.218,1.551,0.389,2.232c0.009,0.049,0.018,0.101,0.028,0.15c0.046,0.242,0.104,0.555,0.279,0.855
			c-0.196,2.109,0.316,4.111,0.84,6.164c0.138,0.552,0.304,1.094,0.469,1.637c0.297,0.975,0.576,1.897,0.72,2.866l0.068,0.53
			c0.101,0.874,0.215,1.858,0.88,2.704l1.812,5.303c0.104,0.739,0.457,1.34,0.766,1.87c0.172,0.291,0.334,0.567,0.448,0.846
			c-0.101,0.91,0.181,1.707,0.429,2.415l0.015,0.049c-0.212,0.417-0.432,0.972-0.251,1.566c-0.812,0.53-1.75,0.846-2.639,1.128
			c-0.334,0.147-0.671,0.285-1.009,0.426c-1.413,0.592-2.872,1.199-4.129,2.244c-0.61,0.092-1.091,0.423-1.487,0.693
			c-0.34,0.236-0.635,0.438-0.904,0.438c-0.012-0.003-0.018-0.003-0.031,0c-1.947,0-2.658,1.389-3.035,2.262l-0.981,0.794
			l-0.359,0.165c-0.055,0.025-0.107,0.058-0.156,0.098c-1.704,1.416-2.82,2.808-3.495,4.359c-0.99,0.674-1.064,1.505-0.898,2.045
			c-0.009,0-0.015,0-0.024,0c-0.788,0-1.438,0.448-1.772,1.257c-0.04,0.101-0.092,0.175-0.169,0.239l-0.638-4.852
			c-0.11-0.512,0.034-1.054,0.187-1.628l0.12-0.472c0.267-1.137,0.472-2.774-0.616-4.255c0.098-0.34,0.064-0.662,0.037-0.904
			c-0.061-0.638-0.138-1.275-0.211-1.913c-0.285-2.434-0.555-4.736-0.245-7.093c0.147-1.116-0.04-2.256-0.539-3.301
			c-0.395-0.822-0.527-1.664-0.448-2.823l0.046-0.573c0.092-1.094,0.19-2.222-0.144-3.372c0.242-0.763,0.092-1.465-0.04-2.097
			c-0.058-0.276-0.12-0.552-0.138-0.877c-0.043-0.368-0.178-0.705-0.294-1.005c-0.276-0.699-0.307-0.898,0.04-1.238
			c0.607-0.582,0.107-1.784,0.046-1.922c-0.141-0.316-0.193-0.674-0.248-1.055c-0.009-0.064-0.018-0.129-0.031-0.193
			c0.202-0.282,0.463-0.779,0.098-1.287c-0.46-0.641-0.555-1.428-0.659-2.262c-0.064-0.515-0.132-1.045-0.282-1.576
			c0.104-0.303,0.089-0.631-0.046-0.95c-0.374-0.861-0.417-1.827-0.46-2.851c-0.058-1.385-0.12-2.814-0.984-4.129
			c0.003-0.009,0.006-0.025,0.009-0.043c0.034-0.132,0.074-0.297,0.08-0.475c0.043-1.478-0.331-2.897-1.14-4.334
			c-0.009-0.178-0.003-0.359,0.003-0.536c0.015-0.573,0.037-1.217-0.313-1.864l-0.156-0.607c0.098-0.641-0.19-1.143-0.408-1.453
			c-0.089-0.518-0.202-1.088-0.487-1.64c-0.003-0.028-0.006-0.052-0.012-0.064c-0.003-0.576-0.267-1.012-0.478-1.364l-0.021-0.037
			c0.034-0.365-0.08-0.714-0.343-1.045c-0.086-0.659-0.475-1.11-0.797-1.484c-0.095-0.11-0.19-0.221-0.273-0.337
			c-0.064-0.086-0.135-0.172-0.205-0.258c-0.074-0.089-0.184-0.221-0.196-0.254c0.184-1.159-0.248-2.087-0.628-2.909
			c-0.126-0.273-0.254-0.546-0.355-0.828c-0.27-0.739-0.763-1.29-1.199-1.778c-0.463-0.521-0.864-0.969-0.996-1.671
			c-1.845-5.318-5.98-8.604-10.195-11.354c-0.533-0.693-1.395-1.015-2.446-0.956c-0.923,0.077-1.704-0.31-2.51-0.745
			c-0.812-1.238-1.747-2.59-3.651-2.67l-0.285-0.255c-1.094-1.18-2.535-1.474-3.807-1.735c-0.291-0.058-0.586-0.12-0.877-0.19
			c-0.549-0.138-0.91,0.144-1.14,0.444l-0.727-0.258c-1.033-0.754-2.146-0.631-3.173-0.472l-0.162-0.046
			c-0.546-0.163-1.333-0.389-2.06,0.141c-0.095-0.006-0.181,0.006-0.267,0.025c-1.741-1.373-3.859-2.103-6.305-2.17
			c-2.173-0.668-4.383-1.113-6.569-1.315c-0.221-0.018-0.441-0.021-0.662-0.021c-0.564,0-0.901-0.012-1.235-0.27
			c-0.466-0.355-0.877-0.365-1.156-0.306c-0.233,0.049-0.432,0.156-0.604,0.3c-0.255-0.279-0.665-0.512-1.303-0.325
			c-0.117,0.034-0.224,0.098-0.307,0.184c-0.414-0.515-1.091-0.601-1.456-0.647c-0.193-0.028-0.389-0.052-0.497-0.101
			c-0.104-0.049-0.218-0.07-0.343-0.064c-0.212-0.006-0.491-0.049-0.776-0.12c-0.475-0.11-1.048-0.251-1.661-0.074
			c-1.067-1.042-2.372-0.736-3.421-0.49c-0.159,0.037-0.291,0.107-0.411,0.199c-0.8-0.696-1.625-0.211-2.008,0.015
			c-0.116,0.07-0.236,0.141-0.316,0.169c-0.092,0.031-0.184,0.067-0.27,0.104c-0.077,0.031-0.196,0.089-0.261,0.052
			c-0.61-0.592-1.358-0.555-1.925-0.509c-0.662-0.536-1.413-0.426-1.943-0.362c-0.138,0.018-0.279,0.04-0.417,0.046
			c-0.392-0.123-0.834-0.215-1.33-0.098l-0.822-0.098c-1.091-0.674-1.999,0.199-2.305,0.497c-0.687,0.65-1.159,0.693-1.879,0.147
			c-0.665-0.506-1.232-0.423-1.508-0.325c-0.202,0.07-0.386,0.19-0.543,0.349c-0.674-0.38-1.459-0.276-1.989-0.199l-0.239,0.031
			c-1.134,0.138-2.232,0.448-3.295,0.748l-0.785,0.218c-0.113,0.031-0.334,0.034-0.546,0.031c-0.589-0.058-1.91-0.012-2.336,1.315
			c-0.242,0.138-0.561,0.141-1.042,0.126l-0.395-0.006c-1.453,0.012-2.468,0.634-3.093,1.904c-1.658,0.913-2.725,2.284-3.258,4.178
			c-0.484,1.726-0.567,3.418-0.589,4.852c-0.349,1.441-0.15,2.851,0.607,4.31c0.006,0.757,0.294,1.389,0.558,1.842
			c0.008,0.101,0.07,0.194,0.114,0.294c0.001,0.162,0.036,0.312,0.099,0.459c0.001,0.118-0.014,0.238,0.032,0.347
			c-0.021,0.564,0.264,0.984,0.494,1.287c-0.021,0.288,0.043,0.647,0.322,1.012c0.024,0.156,0.101,0.3,0.215,0.408
			c0.3,1.229,0.929,2.372,1.959,3.571c0.861,1.949,2.078,3.672,3.258,5.343l0.818,1.168c0.61,0.877,1.294,1.459,2.087,1.769
			c0.904,1.441,2.109,2.98,4.108,3.813c0.49,0.202,0.858,0.432,1.097,0.678c0.702,0.729,1.468,1.404,2.207,2.057
			c1.471,1.294,2.86,2.517,3.77,4.065l0.481,1.208c-0.083,0.665,0.061,1.281,0.19,1.833c0.117,0.49,0.218,0.923,0.163,1.33
			c-0.126,0.211-0.178,0.451-0.15,0.693c-0.383,0.585-0.46,1.235-0.221,1.879c-0.251,0.806-0.466,1.72-0.307,2.701
			c-0.242,0.475-0.251,0.969-0.258,1.376c-0.003,0.26-0.009,0.493-0.067,0.677c-0.178,0.141-0.3,0.334-0.359,0.564
			c-0.68,1.465-1.168,3.035-1.499,4.883l-1.597,5.275c-0.956,1.891-1.229,3.826-0.812,5.754c-0.251,0.294-0.546,0.739-0.451,1.303
			c-0.831,0.858-1.119,1.934-0.858,3.209c-1.563,0.867-1.747,1.373-1.465,3.43c-1.337,1.557-1.493,3.439-1.416,5.269
			c-0.402,0.714-0.435,1.447-0.398,2.005c-0.153,0.365-0.19,0.772-0.113,1.235c-0.377,1.349-0.043,2.593,0.392,3.85
			c-0.055,0.95,0.254,1.759,0.552,2.544c0.193,0.5,0.374,0.975,0.444,1.459c0.497,3.335,1.714,6.324,3.614,8.896
			c-0.024,0.745,0.435,1.235,0.754,1.579l0.343,0.386c0.349,1.284,1.091,2.198,2.213,2.722l0.466,0.628
			c0.941,1.281,1.916,2.609,3.387,3.528c0.135,0.129,0.264,0.264,0.392,0.398c0.536,0.558,1.14,1.186,2.078,1.422
			c0.264,0.236,0.579,0.463,0.975,0.589c0.65,0.889,1.533,1.401,2.385,1.9c0.15,0.089,0.303,0.175,0.451,0.267
			c0.644,0.981,1.542,1.582,2.446,2.121l-2.934,0.604c-0.3-0.031-0.601-0.022-0.901-0.025c-0.285-0.003-0.589,0.009-0.895-0.031
			c-1.327-0.181-2.673-0.15-3.976-0.12l-1.008,0.018c-0.463,0.003-0.834,0.199-1.143,0.454c-0.981-0.368-1.885-0.064-2.636,0.181
			c-0.205,0.064-0.408,0.132-0.613,0.184c-1.72-0.432-3.274,0.003-4.785,0.432c-0.42,0.116-0.837,0.236-1.26,0.334
			c-0.414,0.098-0.714,0.432-0.815,0.858l-0.512,0.215c-0.849-0.251-1.674-0.037-2.293,0.123c-0.671,0.178-1.327,0.411-1.983,0.647
			l-0.723,0.251c-1.033,0.015-1.867,0.481-2.605,0.895c-0.429,0.242-0.834,0.469-1.251,0.601c-0.31-0.037-0.567,0.061-0.791,0.23
			c-0.334,0.031-0.644,0.218-0.914,0.586c-0.08,0.15-0.135,0.322-0.19,0.493c-0.037,0.11-0.089,0.276-0.107,0.303
			c-1.514,0.506-3.28,1.232-4.892,2.793c-1.088,1.051-2.667,1.775-4.264,2.507c-0.138,0.064-0.251,0.172-0.322,0.303
			c-0.114,0.208-0.221,0.42-0.328,0.632c-0.205,0.411-0.411,0.822-0.674,1.189c-0.889,1.232-1.462,2.605-1.686,4.006
			c-0.046,0.172-0.12,0.34-0.193,0.506c-0.224,0.521-0.524,1.22-0.199,2.032l-0.11,1.422c-0.279,0.782-0.285,1.523-0.012,2.21
			c-0.181,0.901,0.092,1.72,0.797,2.388l0.104,0.481c-0.083,0.395,0.024,0.733,0.101,0.969l0.055,0.181
			c0.582,2.281,2.127,3.752,3.712,5.098c0.208,0.245,0.405,0.506,0.598,0.766c0.628,0.834,1.275,1.695,2.33,2.235
			c1.306,0.674,2.621,1.336,3.936,1.999l1.407,0.702c1.156,0.38,2.232,0.913,3.369,1.478c0.478,0.236,0.956,0.475,1.303,0.613
			c1.787,1.407,3.807,2.995,5.177,5.131l0.009,0.049c0.025,0.132,0.086,0.254,0.178,0.349l0.028,0.031
			c0.411,1.156,0.723,2.373,1.024,3.553c0.408,1.606,0.834,3.271,1.527,4.871c0.659,1.514,1.159,3.148,1.643,4.73
			c0.362,1.189,0.729,2.382,1.162,3.55c1.53,4.114,3.525,8.279,7.817,11.001c0.08,0.089,0.159,0.175,0.248,0.248
			c1.287,1.088,3.056,2.397,5.349,2.937c2.492,1.643,5.83,3.592,9.788,4.362c2.664,2.612,5.481,3.497,8.601,2.719
			c0.285,0.092,0.619,0.159,0.947,0.147c0.202,0.107,0.444,0.153,0.65,0.129c0.306,0.123,0.61,0.107,0.883-0.025
			c0.003,0,0.006,0,0.006,0c0.31,0,0.61-0.083,0.895-0.245c2.281-0.028,4.481-0.53,6.593-1.097l0.224-0.058
			c1.986-0.53,4.898-1.487,7.271-3.663c0.254-0.239,0.478-0.53,0.693-0.822c0.236-0.319,0.481-0.65,0.705-0.733
			c1.649-0.607,3.111-1.536,4.524-2.437c0.291-0.187,0.582-0.371,0.877-0.555c-0.012,0.061-0.024,0.126-0.037,0.193
			c-0.098,0.494-0.218,1.091,0.058,1.698l-0.028,0.104c-0.638,0.561-0.683,1.168-0.579,1.625c-0.126,0.208-0.239,0.463-0.254,0.769
			c-0.383,0.668-0.423,1.382-0.454,2.017c-0.024,0.423-0.046,0.822-0.169,1.107c-0.503,1.14-0.864,2.327-1.217,3.473
			c-0.368,1.205-0.717,2.342-1.214,3.439c-0.193,0.236-0.285,0.521-0.26,0.812c-0.068,0.11-0.141,0.215-0.215,0.322
			c-0.279,0.401-0.595,0.852-0.687,1.462c-0.766,1.456-0.99,3.013-1.171,4.405c-0.218,0.362-0.451,0.864-0.445,1.471
			c-0.061,0.107-0.129,0.215-0.193,0.319c-0.303,0.491-0.674,1.091-0.647,1.87c-0.254,0.481-0.362,0.993-0.46,1.45
			c-0.089,0.429-0.175,0.834-0.359,1.104c-1.119,1.628-1.707,3.445-2.278,5.199c-0.414,1.275-0.803,2.48-1.327,3.528
			c-0.864,1.214-1.438,2.563-1.992,3.865c-0.561,1.315-1.091,2.559-1.888,3.663c-0.23,0.313-0.334,0.751-0.264,1.113
			c0.074,0.38-0.104,0.641-0.451,1.107c-0.12,0.162-0.239,0.325-0.346,0.497c-0.969,1.557-2.02,3.427-2.52,5.554
			c-0.095,0.101-0.23,0.211-0.368,0.322c-0.445,0.365-1.159,0.947-1.015,1.986c-0.113,0.205-0.159,0.435-0.135,0.677l-0.159,0.38
			c-0.681,0.463-1.456,1.195-1.478,2.431l-1.612,2.639c-0.242,0.239-0.368,0.546-0.371,0.867c-0.319,0.435-0.723,1.015-0.585,1.809
			l-0.018,0.058c-1.297,0.632-1.505,1.901-1.661,2.842c-0.028,0.169-0.055,0.34-0.058,0.398c-0.11,0.294-0.386,0.567-0.681,0.858
			c-0.552,0.549-1.241,1.232-1.131,2.504c0.071,0.31-0.067,0.509-0.457,0.95c-0.184,0.215-0.395,0.454-0.549,0.736
			c-0.521,0.947-0.981,1.931-1.438,2.912c-0.877,1.876-1.701,3.645-2.958,5.196c-0.579,0.714-1.266,1.692-1.484,2.967
			c-0.353,0.57-0.671,1.156-0.987,1.744c-0.662,1.217-1.284,2.369-2.195,3.366c-1.033,1.128-1.664,2.51-2.278,3.847
			c-0.199,0.441-0.401,0.88-0.616,1.309c-0.254,0.503-0.592,0.956-0.947,1.435c-0.349,0.469-0.711,0.953-1.008,1.511
			c-0.478,0.886-0.92,1.793-1.364,2.698c-0.886,1.808-1.802,3.675-2.97,5.337c-1.107,0.779-1.925,1.977-2.308,3.39
			c-0.251,0.926-0.665,1.796-1.346,2.826c-0.316,0.478-0.68,0.923-1.045,1.367c-0.736,0.901-1.496,1.83-1.913,3.038
			c-0.635,0.72-1.297,1.563-1.625,2.642c-0.622,0.138-1.015,0.576-1.318,0.913c-0.104,0.117-0.205,0.23-0.319,0.331
			c-0.638,0.564-0.864,1.281-1.064,1.913c-0.132,0.42-0.248,0.788-0.463,1.067c-0.466,0.129-1.085,0.31-1.416,0.923
			c-0.395,0.736-0.947,1.386-1.533,2.072c-0.874,1.027-1.775,2.084-2.189,3.504c-0.239,0.049-0.441,0.15-0.613,0.303
			c-0.251,0.224-0.402,0.527-0.448,0.91c-0.101,0.095-0.236,0.19-0.377,0.288c-0.438,0.31-1.024,0.723-1.174,1.539l-1.404,1.52
			c-0.889,0.402-1.104,1.211-1.26,1.809c-0.028,0.101-0.055,0.202-0.086,0.303c-0.248,0.328-0.533,0.628-0.815,0.932
			c-0.383,0.408-0.776,0.828-1.107,1.315c0.052-0.138,0.107-0.279,0.159-0.42c0.589-1.539,1.199-3.13,1.324-4.883
			c1.027-2.44,1.622-4.659,1.808-6.713c0.018-0.092,0.052-0.181,0.083-0.27c0.089-0.258,0.208-0.601,0.153-1.005l0.037-0.258
			c0.046-0.288,0.092-0.576,0.104-0.871c0.147-3.311,0.304-7.225,0.356-11.136c0.089-6.226,0.917-12.51,1.717-18.588
			c0.184-1.404,0.371-2.811,0.546-4.215c0.304-0.469,0.279-0.944,0.202-1.281c0.104-0.236,0.123-0.515,0.003-0.806
			c0.031-0.129,0.067-0.261,0.101-0.389c0.181-0.668,0.386-1.416,0.23-2.247c0.215-0.589,0.205-1.143-0.031-1.661
			c0.055-0.509,0.135-1.012,0.211-1.517c0.104-0.653,0.205-1.309,0.26-1.977c0.23-2.891,0.077-5.781-0.07-8.58l-0.043-0.815
			c-0.034-0.677-0.031-1.361-0.028-2.042c0.003-1.094,0.009-2.225-0.144-3.344c-0.172-1.281-0.285-2.569-0.402-3.856
			c-0.092-1.015-0.184-2.032-0.303-3.047c0.15-0.444,0.254-1.033-0.028-1.643c0.028-0.273-0.021-0.601-0.239-0.941
			c0.015-0.282-0.043-0.61-0.27-0.947c-0.074-1.413-0.325-2.538-0.748-3.399c-0.141-0.665-0.242-1.34-0.346-2.014
			c-0.215-1.404-0.438-2.857-0.981-4.206c-1.324-4.147-2.746-7.378-4.478-10.165l-0.674-1.097c-1.468-2.385-2.983-4.849-4.917-7.01
			c-0.031-0.12-0.089-0.227-0.169-0.322c-0.028-0.196-0.083-0.444-0.279-0.653c-3.154-3.39-5.735-6.594-7.887-9.791
			c-3.458-5.147-6.551-9.177-9.738-12.69c-0.417-0.463-0.822-0.938-1.223-1.416c-1.113-1.321-2.262-2.685-3.758-3.733
			c-0.846-1.281-2.035-2.317-3.626-3.169c-0.739-0.392-1.297-0.659-1.888-0.469c-0.631,0.196-0.972,0.822-1.419,1.689
			c-0.205,0.221-0.325,0.487-0.343,0.779c-0.049,0.083-0.086,0.172-0.104,0.27l-0.776,1.3c-0.144,0.165-0.251,0.343-0.267,0.42
			l-0.914,1.41c-0.656,1.021-1.312,2.042-1.999,3.041l-0.95,1.401c-1.07,1.579-2.173,3.212-3.396,4.678
			c-1.336,1.6-3.056,3.749-4.408,6.054c-1.137,1.257-2.017,2.471-2.688,3.706c-0.405,0.319-0.677,0.714-0.815,1.174
			c-0.067,0.077-0.123,0.159-0.169,0.251c-0.656,0.573-0.996,1.297-1.202,1.861c-0.064,0.067-0.12,0.141-0.162,0.221
			c-0.444,0.334-0.573,0.742-0.595,1.064c-0.984,1.52-1.622,2.894-1.995,4.304c-0.733,2.771-0.711,5.671,0.061,8.862
			c-0.031,0.423-0.07,0.849-0.11,1.275c-0.101,1.057-0.202,2.152-0.153,3.243c0.021,0.478-0.031,0.959-0.08,1.438
			c-0.098,0.947-0.199,1.925,0.147,2.94c-0.089,0.607-0.126,1.223-0.159,1.836c-0.064,1.131-0.126,2.198-0.546,3.216l-0.193,0.463
			c-0.561,1.339-1.14,2.725-1.226,4.138c-1.272,4.488-0.607,8.473,1.971,11.854c0.037,0.126,0.095,0.242,0.172,0.349
			c0.564,1.309,1.465,2.33,2.339,3.32c0.478,0.539,0.929,1.051,1.324,1.603l0.018,0.068c0.037,0.12,0.101,0.227,0.19,0.313
			l2.707,5.833l1.134,4.46c-0.132,0.515,0.089,0.944,0.267,1.198c0.018,0.251,0.015,0.506,0.012,0.76
			c-0.009,0.757-0.018,1.603,0.478,2.412l0.352,3.927l-0.083,0.861c-0.067,0.742-0.135,1.487-0.218,2.232
			c-0.362,3.28-0.494,6.198-0.405,8.834c-0.383,4.478-0.027,8.359,1.067,11.792c0.386,2.029,0.935,3.764,1.674,5.303
			c-0.012,0.264,0.037,0.582,0.242,0.913c0.11,3.167,2.299,4.705,4.031,5.594c0.386,0.512,0.886,0.852,1.333,1.156
			c0.331,0.224,0.644,0.438,0.892,0.699c0.874,0.935,1.827,1.805,2.747,2.648c0.638,0.582,1.278,1.168,1.894,1.775l1.45,1.422
			c2.9,2.829,5.898,5.754,8.282,9.113c0.006,0.549,0.307,0.95,0.515,1.229c0.015,0.022,0.034,0.043,0.049,0.064
			c0.092,1.714,0.38,3.402,0.659,5.039c0.193,1.125,0.386,2.247,0.515,3.387c0.021,0.172,0.095,0.3,0.172,0.396
			c0.034,0.567-0.165,1.076-0.659,1.698c-0.135,0.175-0.297,0.331-0.46,0.487c-0.368,0.356-0.782,0.757-1.005,1.352l-2.535,2.357
			c-1.778,1.652-3.553,3.304-5.34,4.947c-1.493,1.367-2.995,2.722-4.5,4.077l-2.219,2.008l-0.346,0.248
			c-0.279,0.196-0.558,0.395-0.815,0.625c-3.547,3.173-7.375,6.143-10.995,8.914c-2.048,1.569-4.245,3.029-6.373,4.442
			c-1.097,0.727-2.192,1.453-3.274,2.198c-0.389,0.267-0.788,0.521-1.183,0.779c-1.008,0.647-2.051,1.318-2.967,2.186
			c-0.529,0.118-0.98,0.303-1.387,0.532c-0.732,0.224-1.462,0.456-2.184,0.688c-1.11,0.355-2.216,0.711-3.301,1.024
			c-2.437,0.696-4.767,1.465-6.511,3.191c-0.232,0.229-0.377,0.485-0.568,0.728c-1.214,0.106-2.358,0.552-3.598,1.387
			c-0.527,0.227-1.061,0.441-1.597,0.653c-1.683,0.671-3.421,1.364-4.963,2.498c-0.233-0.024-0.555-0.046-0.87,0.104
			c-1.398,0.693-2.888,1.278-4.331,1.842c-1.606,0.631-3.268,1.281-4.846,2.097c-0.487,0.028-0.772,0.166-1.008,0.294
			c-0.025,0.015-0.049,0.028-0.074,0.04c-0.282-0.067-0.564-0.021-0.818,0.129l-0.524,0.064c-0.546-0.163-0.981,0.077-1.238,0.27
			c-0.604,0.058-1.146,0.251-1.671,0.438c-0.481,0.169-0.938,0.331-1.392,0.365c-0.748-0.371-1.407-0.046-1.815,0.153
			c-0.046,0.021-0.089,0.046-0.135,0.067c-1.232-0.257-2.345,0.117-3.36,0.576c-0.791,0.009-1.462,0.104-2.072,0.291
			c-0.582-0.258-1.165-0.178-1.606-0.113c-0.181,0.024-0.356,0.049-0.509,0.052c-0.871-0.457-1.735-0.27-2.425-0.113
			c-0.153,0.034-0.307,0.067-0.396,0.086c-0.889,0.083-1.732-0.08-2.645-0.242c-0.693-0.123-1.407-0.251-2.149-0.279
			c-0.512-0.313-1.039-0.187-1.401-0.067c-0.809-0.07-1.579,0.049-2.198,0.181c-0.656-0.224-1.3-0.181-1.87-0.141
			c-0.175,0.012-0.346,0.021-0.515,0.028c-0.935,0.015-1.867,0.123-2.345,0.785c-0.46,0.635-0.328,1.487,0.012,2.566
			c0.055,0.178,0.123,0.356,0.19,0.533l0.086,0.233c0.028,0.074,0.064,0.141,0.113,0.202l1.747,2.18
			c0.052,0.067,0.12,0.126,0.193,0.169c0.273,0.159,0.533,0.346,0.797,0.533c0.723,0.518,1.539,1.1,2.636,1.186
			c1.609,0.766,3.264,0.628,5.027,0.497c0.696-0.055,1.195,0.07,1.882,0.484c1.64,0.536,3.215,0.31,4.751,0.086l0.757-0.107
			c0.009-0.003,0.018-0.006,0.025-0.006c0.006,0,0.012,0,0.018-0.003l1.306-0.242c0.769,0.043,1.496-0.003,2.213-0.049
			c1.186-0.07,2.305-0.144,3.412,0.193c1.747,0.543,3.458,0.763,5.101,0.763c3.596,0,6.866-1.051,9.463-2.081
			c0.567-0.092,1.159-0.074,1.799-0.058c0.969,0.028,1.995,0.058,2.918-0.303c0.034,0.003,0.144,0.043,0.242,0.107
			c1.14,0.742,2.302,0.429,3.065,0.23c1.775-0.475,4.074-1.193,6.152-2.556c0.769-0.248,1.711-0.638,2.486-1.422
			c0.904-0.202,1.514-0.773,2.06-1.284c0.169-0.156,0.334-0.316,0.512-0.46c0.619-0.02,1.107-0.267,1.528-0.559
			c2.517,0.926,5.098,1.781,7.782,2.468c1.128,0.288,2.281,0.527,3.433,0.763c0.772,0.159,1.548,0.319,2.314,0.494
			c0.708,0.162,1.502,0.245,2.268,0.322c0.855,0.089,1.741,0.181,2.419,0.38c2.373,0.699,4.589,1.039,6.704,0.929
			c0.089,0.009,0.172,0.028,0.254,0.046c0.162,0.034,0.356,0.077,0.586,0.077c0.132,0,0.276-0.015,0.429-0.052l0.258,0.006
			c0.288,0.009,0.582,0.015,0.987-0.015c1.615-0.129,3.234-0.26,4.849-0.401c2.164-0.187,4.331-0.389,6.508-0.619
			c6.462-0.687,12.822-0.671,18.99-0.65c1.386,0.003,2.774,0.012,4.169,0.003c0.454,0.23,0.941,0.15,1.284,0.034
			c0.215,0.074,0.487,0.074,0.821-0.098c0.141,0.015,0.282,0.034,0.423,0.055c0.653,0.086,1.383,0.184,2.259-0.061
			c0.564,0.135,1.137,0.061,1.695-0.233c0.533-0.012,1.042,0.003,1.56,0.015c0.659,0.015,1.318,0.031,2.005,0.003
			c2.915-0.132,5.913-0.625,8.816-1.104l0.92-0.153c0.711-0.117,1.416-0.196,2.121-0.276c1.131-0.132,2.299-0.264,3.476-0.543
			c1.379-0.328,2.753-0.601,4.126-0.87c1.061-0.212,2.124-0.42,3.191-0.656c0.604,0.12,1.147,0.043,1.665-0.227
			c0.003,0,0.003,0,0.006,0c0.426,0,0.776-0.187,1.005-0.346c0.34-0.006,0.68-0.129,1.011-0.362c1.477-0.236,2.688-0.61,3.703-1.131
			c0.72-0.218,1.441-0.398,2.161-0.582c1.487-0.374,3.022-0.76,4.518-1.441c4.524-1.753,8.132-3.495,11.357-5.481l1.266-0.775
			c2.771-1.698,5.637-3.452,8.255-5.564c0.144-0.04,0.273-0.113,0.383-0.212c0.19-0.043,0.435-0.104,0.653-0.282
			c4.169-3.445,8.013-6.305,11.749-8.745c5.993-3.911,10.775-7.348,15.048-10.811c0.561-0.457,1.14-0.901,1.717-1.346
			c1.588-1.22,3.228-2.486,4.595-4.031c1.474-0.941,2.765-2.176,3.945-3.777c0.53-0.717,0.987-1.339,0.8-1.989
			c-0.175-0.607-0.779-0.87-1.554-1.177c-0.169-0.138-0.423-0.267-0.812-0.251c-0.058-0.018-0.12-0.031-0.187-0.04l-1.18-0.579
			c-0.147-0.113-0.3-0.193-0.466-0.248l-1.29-0.702c-0.898-0.484-1.796-0.969-2.667-1.484l-1.254-0.729
			c-1.419-0.821-2.885-1.671-4.147-2.648c-1.385-1.073-3.252-2.437-5.45-3.507c-1.045-0.898-2.106-1.576-3.237-2.063
			c-0.276-0.353-0.647-0.576-1.097-0.656c-0.058-0.046-0.123-0.083-0.193-0.11c-0.49-0.558-1.165-0.803-1.714-0.935
			c-0.046-0.037-0.095-0.071-0.147-0.095c-0.251-0.337-0.684-0.515-1.064-0.478c-1.379-0.751-2.682-1.189-4.077-1.37
			c-2.731-0.365-5.723,0.009-9.162,1.143c-0.426,0.021-0.852,0.037-1.275,0.049c-1.088,0.037-2.213,0.074-3.363,0.254
			c-0.503,0.077-0.99,0.086-1.48,0.098c-0.963,0.025-1.956,0.049-3.053,0.506c-0.604-0.021-1.254,0.028-1.894,0.07
			c-1.156,0.083-2.244,0.153-3.212-0.123l-0.432-0.123c-1.284-0.374-2.627-0.76-4.062-0.665c-4.448-0.662-8.546,0.414-12.552,3.298
			c-0.15,0.049-0.27,0.113-0.31,0.166c-1.465,0.677-2.713,1.667-3.918,2.627c-0.68,0.539-1.355,1.079-1.925,1.484l-0.199,0.074
			c-0.083,0.031-0.159,0.077-0.224,0.135l-6.722,3.381l-4.883,1.643c-0.533-0.077-0.95,0.184-1.226,0.38
			c-0.291,0.061-0.579,0.092-0.87,0.123c-0.766,0.083-1.634,0.178-2.52,0.739l-4.212,0.831l-1.131,0.037
			c-0.674,0.025-1.346,0.046-2.014,0.058c-1.736,0.031-3.376,0.115-4.952,0.241c0.95-0.81,1.92-1.615,2.904-2.43
			c1.695-1.404,3.445-2.857,5.128-4.38c2.93-2.655,5.665-5.879,8.307-9c1.232-1.453,2.455-2.894,3.795-4.383
			c0.218-0.236,0.5-0.542,0.641-0.969c0.095-0.083,0.172-0.181,0.227-0.294c0.38-0.297,0.818-0.739,1.03-1.392l0.092-0.092
			c0.316-0.193,0.868-0.57,1.042-1.269l0.012-0.009c0.162-0.15,0.322-0.3,0.46-0.475l1.664-2.155
			c1.809-2.336,3.617-4.669,5.374-7.044c0.251-0.334,0.506-0.668,0.76-1.002c0.435-0.57,0.871-1.14,1.278-1.726l0.628-0.895
			c0.803-1.14,1.609-2.284,2.357-3.461c1.113-1.747,1.91-3.265,2.467-4.69l0.371-0.668c0.331-0.592,0.659-1.18,0.972-1.781
			l0.515-0.978c1.177-2.244,2.397-4.561,3.332-6.974c1.861-3.274,3.789-6.658,6.232-9.601c0.215-0.26,0.319-0.549,0.414-0.803
			l0.024-0.123c3.409-4.779,6.692-9.941,9.76-15.345c0.343-0.598,0.745-1.147,1.174-1.729c0.484-0.656,0.984-1.336,1.385-2.097
			c0.215-0.193,0.331-0.442,0.34-0.711c0.634-0.653,1.027-1.343,1.192-2.1c0.098-0.092,0.205-0.175,0.313-0.261
			c0.386-0.307,0.865-0.684,1.067-1.349c0.374-0.57,0.763-1.128,1.152-1.686c1.006-1.438,2.045-2.924,2.817-4.583
			c0.662-0.561,1.339-1.254,1.517-2.302c1.076-1.579,1.793-3.329,2.48-5.03c0.727-1.15,1.202-2.4,1.665-3.605l0.208-0.564
			c0.218-0.411,0.448-0.818,0.674-1.226c0.521-0.929,1.061-1.888,1.453-2.915c1.781-4.647,3.016-8.525,3.896-12.209
			c0.073-0.307,0.181-0.607,0.288-0.907c0.227-0.647,0.484-1.37,0.451-2.185c2.042-3.586,2.964-7.562,3.856-11.406l0.273-1.18
			c0.343-1.462,0.598-2.958,0.843-4.402c0.297-1.763,0.604-3.583,1.076-5.324c0.448-1.668,0.852-3.347,1.254-5.024l0.527-2.179
			c0.95-1.652,1.459-3.249,1.557-4.88c0.015-0.279,0.12-0.589,0.23-0.92c0.052-0.153,0.104-0.31,0.147-0.46l0.503-1.68
			c0.386-1.281,0.773-2.56,1.11-3.853c0.359-1.376,0.782-2.707,1.3-4.065c0.429-1.131,0.542-2.308,0.656-3.445
			c0.083-0.858,0.163-1.671,0.365-2.44c0.224-0.788,0.503-1.56,0.779-2.333c0.527-1.48,1.073-3.007,1.278-4.733
			c0.003-0.178,0.086-0.402,0.178-0.638c0.153-0.402,0.352-0.926,0.227-1.53c0.147-0.346,0.199-0.687,0.159-1.018
			c0.429-0.65,0.481-1.355,0.533-1.986c0.018-0.267,0.037-0.536,0.052-0.659c0.441-0.99,0.653-1.852,0.662-2.694
			c0.031-0.086,0.068-0.175,0.104-0.261c0.159-0.383,0.371-0.889,0.248-1.487c0.365-0.858,0.671-1.864,0.527-2.992
			c0.067-0.169,0.098-0.343,0.086-0.524c0.077-0.123,0.132-0.251,0.169-0.389c0.031,0.055,0.061,0.113,0.095,0.175
			c0.058,0.107,0.117,0.215,0.175,0.319c-0.396,0.825-0.031,1.603,0.199,2.097c0.077,0.163,0.156,0.322,0.199,0.481
			c0.644,2.247,1.661,4.353,2.642,6.391c0.27,0.561,0.539,1.122,0.803,1.686c0.662,1.422,1.53,2.749,2.366,4.037
			c0.313,0.478,0.625,0.959,0.926,1.441c0.175,0.282,0.438,0.441,0.632,0.561l0.092,0.058c0.328,0.42,0.662,0.834,0.993,1.251
			c1.444,1.799,2.805,3.501,3.798,5.508c0.484,0.975,1.198,1.851,1.956,2.406c0.494,0.359,0.861,0.886,1.248,1.444
			c0.512,0.739,1.085,1.563,2.042,2.06c0.714,1.419,1.677,2.664,2.612,3.868c1.131,1.462,2.201,2.839,2.811,4.359l0.07,0.472
			c0.052,0.395,0.11,0.791,0.227,1.168c0.956,3.127,1.876,6.508,2.136,10.06c-0.202,0.607-0.043,1.146,0.089,1.588
			c0.08,0.273,0.15,0.512,0.12,0.708c-0.196,1.257,0.095,2.526,0.886,3.865l0.018,0.211c-0.159,0.414-0.132,0.822,0.071,1.165
			c-0.031,0.297,0.031,0.662,0.331,1.03c0.276,1.468,0.576,2.796,1.257,4.046c0.297,1.573,0.742,3.182,2.317,4.233l0.267,0.362
			c0.313,1.131,1.263,1.441,1.901,1.649c0.31,0.101,0.601,0.196,0.693,0.264c0.267,0.313,0.61,0.503,1.012,0.561
			c0.04,0.049,0.077,0.101,0.116,0.153c0.322,0.429,0.861,1.202,1.95,1.012c1.536,0.999,3.05,1.438,4.69,1.349
			c1.554,0.953,3.317,1.177,5.364,0.711c0.215-0.049,0.368-0.166,0.49-0.31c0.353,0.279,0.818,0.57,1.585,0.411
			c0.73-0.15,1.383-0.113,1.94,0.098c0.405,0.42,0.975,0.57,1.637,0.432c0.211-0.046,0.426-0.083,0.638-0.12
			c0.791-0.141,1.692-0.3,2.56-0.907c0.153-0.104,0.497-0.027,0.87,0.052c0.558,0.12,1.3,0.276,2.005-0.068
			c0.469,0.052,0.889-0.04,1.291-0.162c0.941,0.297,1.689-0.129,2.244-0.457c0.291-0.165,0.564-0.325,0.739-0.352
			c0.239-0.009,0.478-0.006,0.717,0.006c0.772,0.015,1.628,0.046,2.44-0.405c0.935,0.512,1.95,0.337,2.581,0.221
			c1.318-0.227,2.627-0.202,4.022-0.184c0.708,0.012,1.413,0.024,2.112,0c0.261,0.101,0.533,0.101,0.794,0.012
			c0.291,0.049,0.595,0.144,0.914,0.245c0.579,0.187,1.226,0.395,1.977,0.325c0.956,0.313,1.937,0.42,2.765,0.343
			c0.625,0.101,1.254,0.175,1.885,0.245c0.57,0.067,1.143,0.135,1.71,0.224c0.371,0.058,0.742,0.147,1.113,0.236
			c1.015,0.242,2.155,0.515,3.356,0.205l0.487,0.064c0.003,0,0.006,0,0.009,0.003l0.573,0.073c0.785,0.104,1.569,0.205,2.351,0.316
			c1.008,0.15,1.723-0.199,2.124-0.947l0.828,0.392c0.248,0.245,0.552,0.35,0.917,0.313c1.051,0.408,2.1,0.362,3.108,0.303
			c0.304-0.015,0.607-0.031,0.935-0.034c0.273-0.003,0.552,0,0.837-0.003c0.641,0.015,1.275,0.015,1.94-0.12
			c0.245,0.074,0.512,0.064,0.763-0.046c0.077-0.006,0.153-0.025,0.227-0.052c0.138,0.018,0.276,0.012,0.408-0.003
			c0.405,0.239,0.825,0.359,1.192,0.451c1.833,0.466,3.678,0.435,5.462,0.411c1.398-0.028,2.716-0.043,4.037,0.153
			c0.264,0.04,0.475-0.052,0.631-0.159l0.239,0.028c0.405,0.135,0.819,0.169,1.223,0.095c0.441,0.123,0.855-0.028,1.11-0.159
			c0.889-0.009,1.741-0.172,2.566-0.331c0.628-0.12,1.226-0.236,1.827-0.282c1.818,0.49,3.17-0.491,4.267-1.272
			c2.048-1.438,4.294-3.534,3.727-7.096c0.273-0.454,0.23-0.861,0.172-1.082c-0.497-1.858-0.999-3.712-1.499-5.564l-0.322-1.189
			c-0.003-0.221-0.074-0.426-0.208-0.598l-0.855-2.216c-0.098-0.855-0.567-1.465-0.981-2.005l-0.196-0.26
			c-0.19-0.503-0.34-1.021-0.487-1.536c-0.264-0.914-0.536-1.858-1.03-2.747c0-0.497-0.242-0.886-0.506-1.245
			c-0.024-0.144-0.086-0.279-0.181-0.392l-0.159-0.561c0.049-0.227,0.031-0.457-0.058-0.684c0.046-0.472-0.129-0.858-0.261-1.153
			c-0.086-0.193-0.159-0.356-0.162-0.395c0.126-0.705,0.058-1.379-0.202-1.999l0.012-0.205c0.46-0.791,0.586-1.625,0.705-2.437
			l0.031-0.297c0.15-0.42,0.147-0.846-0.009-1.238c0.046-0.331,0.205-0.659,0.386-1.03c0.258-0.524,0.546-1.116,0.543-1.842
			c0-0.11-0.061-0.19-0.113-0.288c0.028-0.046,0.144-0.144,0.224-0.208c0.095-0.08,0.187-0.156,0.264-0.236
			c0.659-0.665,0.932-1.428,0.815-2.275c0.674-0.475,1.269-1.024,1.573-1.928c0.101-0.303,0.307-0.634,0.564-0.907
			c1.772-1.87,2.008-4.15,2.179-6.373c0.408-0.481,0.438-1.048,0.438-1.563c0.555-1.297,0.398-2.55,0.245-3.761
			c-0.037-0.297-0.074-0.595-0.098-0.892c-0.064-0.708-0.374-1.294-0.647-1.812c-0.349-0.668-0.561-1.107-0.457-1.579
			c0.377-1.226-0.3-2.17-0.638-2.636l-1.689-2.731c-0.055-0.144-0.138-0.273-0.242-0.383c-0.181-0.641-0.644-1.337-1.759-1.603
			c0.258-0.726-0.095-1.281-0.395-1.649c-0.11-0.564-0.558-0.828-0.791-0.966c-0.058-0.034-0.132-0.074-0.098-0.012
			c-0.325-0.576-0.812-0.907-1.242-1.199c-0.132-0.089-0.26-0.178-0.386-0.273c-0.754-1.039-1.726-1.802-2.756-2.195
			c-0.727-0.512-1.873-1.165-3.289-0.929c-0.022,0.003-0.04,0.006-0.061,0.009c-0.043-0.04-0.089-0.077-0.138-0.117
			c-0.046-0.227-0.202-0.426-0.432-0.518c-0.785-0.306-1.542-0.674-2.302-1.039c-1.245-0.601-2.532-1.22-3.933-1.597
			c-0.294-0.267-0.625-0.429-0.923-0.576c-0.285-0.141-0.53-0.261-0.687-0.441c-0.178-0.208-0.794-0.791-1.802-0.352
			c-0.015-0.025-0.031-0.049-0.046-0.07c-0.147-0.242-0.411-0.665-0.938-0.785c-0.674-0.457-1.548-0.984-2.56-1.291
			c-0.432-0.57-1.042-0.889-1.79-0.938c-0.034-0.021-0.07-0.043-0.11-0.061l-0.285-0.392c0.08-0.178,0.129-0.392,0.08-0.634
			c-0.077-0.377-0.355-0.662-0.818-0.843c-0.205-0.083-0.405-0.181-0.601-0.279l-0.34-0.156c-0.254-0.08-0.604-0.169-0.935-0.104
			c-0.147-0.205-0.34-0.411-0.619-0.555c-0.181-0.095-0.386-0.104-0.582-0.034c-0.95,0.371-1.634,0.497-2.333,0.034
			c-0.671-0.457-1.303-0.199-1.747,0.089c-0.261-0.092-0.524-0.175-0.788-0.258c-1.318-0.414-2.458-0.772-3.169-1.925
			c-0.3-0.475-0.892-0.797-1.508-0.825c-0.276-0.113-0.555-0.279-0.846-0.454c-0.598-0.359-1.269-0.76-2.13-0.794
			c-0.631-0.374-1.343-0.763-2.216-0.843l-0.552-0.211c-0.68-0.674-1.465-0.969-2.348-0.96c-0.484-0.457-1.082-0.886-1.891-1.018
			c-0.009-0.009-0.018-0.018-0.031-0.028c-0.196-0.166-0.466-0.392-0.852-0.414c-1.113-0.058-2.09-0.561-3.123-1.091
			c-0.438-0.227-0.874-0.451-1.321-0.644c-0.153-0.12-0.356-0.221-0.619-0.242c-0.472-0.478-1.07-0.653-1.563-0.797
			c-0.11-0.031-0.218-0.064-0.322-0.098c-0.745-0.481-1.545-0.717-2.32-0.947c-0.218-0.064-0.438-0.129-0.653-0.199
			c-0.671-0.561-1.456-0.582-2.094-0.601c-0.319-0.009-0.613-0.018-0.858-0.089c-0.024-0.126-0.08-0.239-0.165-0.343
			c-0.123-0.153-0.294-0.26-0.736-0.303c-0.613-0.162-1.076,0.043-1.407,0.616l-0.224-0.208c-0.871-0.809-1.766-1.643-3.041-2.029
			c-0.242-0.227-0.539-0.368-0.877-0.42c-0.068-0.052-0.141-0.095-0.218-0.129c-0.224-0.221-0.518-0.331-0.806-0.306
			c-0.809-0.383-1.707-0.515-2.676-0.408c-0.251-0.254-0.595-0.53-1.091-0.585c-1.668-0.935-3.212-1.554-4.656-1.873
			c-1.174-0.398-2.725-0.812-4.435-0.607c-0.503-0.383-1.051-0.619-1.582-0.849c-0.153-0.064-0.304-0.129-0.454-0.196
			c-0.129-0.104-0.273-0.178-0.423-0.221c0.159-0.211,0.27-0.481,0.199-0.797c-0.147-0.662-0.92-0.794-1.208-0.84
			c-0.175-0.031-0.349-0.07-0.524-0.107l-0.371-0.08c-0.095-0.018-0.208-0.015-0.307,0.012c-0.018-0.012-0.04-0.025-0.061-0.037
			c-0.193-0.098-0.766-0.405-1.312-0.129c-0.408,0.214-0.53,0.61-0.583,0.944l-0.239,0.043c-0.359-0.061-0.677,0.037-0.944,0.104
			c-0.448,0.123-0.457,0.104-0.582-0.058c-0.389-0.487-1.266-0.616-1.91-0.441c-0.273-0.025-0.579-0.113-0.901-0.205
			c-0.779-0.227-1.76-0.506-2.688,0.135c-0.723,0.509-1.569,0.665-2.465,0.834c-0.561,0.104-1.134,0.212-1.704,0.408
			c-0.861-0.328-1.637-0.064-2.271,0.156c0.521-0.258,1.036-0.558,1.53-0.913c0.907-0.653,1.796-1.26,2.701-1.517
			c1.389-0.396,2.713-0.956,3.994-1.499c1.107-0.472,2.253-0.956,3.412-1.318c1.226-0.38,2.394-0.935,3.519-1.471
			c0.448-0.215,0.895-0.426,1.346-0.628c1.205-0.043,2.363-0.291,3.485-0.53c0.699-0.153,1.401-0.303,2.106-0.401
			c0.656-0.089,1.312-0.221,1.965-0.353c1.569-0.316,3.05-0.616,4.564-0.328c0.527,0.481,1.183,0.371,1.548,0.31
			c0.463-0.08,0.92-0.172,1.379-0.264c1.272-0.251,2.477-0.49,3.715-0.506c0,0,0.002,0,0.003,0c0.077,0.015,0.184,0.064,0.297,0.116
			c0.349,0.153,0.953,0.429,1.606,0.067c0.322,0.117,0.757,0.254,1.162,0.028c0.818-0.46,1.729-0.408,2.688-0.34
			c0.506,0.031,1.002,0.058,1.352,0.025c1.214,0.184,2.207,0.003,3.019-0.536c0.258,0.141,0.53,0.202,0.772,0.156l6.492,0.671
			c0.218,0.215,0.53,0.448,0.978,0.457c1.002,0.408,2.042,0.625,3.047,0.834c0.49,0.101,0.981,0.202,1.465,0.328
			c0.27,0.276,0.601,0.429,0.969,0.448c0.227,0.144,0.484,0.202,0.742,0.159c0.454,0.144,0.861,0.015,1.143-0.068
			c0.064-0.021,0.132-0.04,0.19-0.055c0.978,0.561,2.029,0.607,2.964,0.647c0.435,0.021,0.867,0.037,1.192,0.086l0.319,0.116
			c0.279,0.104,0.595,0.224,0.941,0.27l1.631,0.221c1.67,0.233,3.396,0.475,5.119,0.567c0.656,0.037,1.315,0.126,1.968,0.218
			c1.128,0.156,2.287,0.316,3.467,0.202l0.451-0.043c1.551-0.147,3.013-0.291,4.531-0.291c0.015,0,0.031,0,0.046,0
			c3.482,0.089,7.213-0.046,10.867-0.475l0.536-0.061c1.435-0.163,2.915-0.328,4.331-0.938c2.428-1.048,4.435-2.005,6.321-3.246
			c2.158-0.558,3.685-1.435,4.797-2.753c0.822-0.978,1.738-1.95,2.667-2.872c0.999-0.589,1.318-1.517,1.597-2.339
			c0.098-0.288,0.193-0.576,0.325-0.843c0.546-0.61,0.638-1.321,0.653-1.953c0.494-0.444,0.506-1.07,0.512-1.435l0.006-0.135
			C792.115,384.382,791.548,380.787,790.856,377.39z M772.375,392.386l-0.248,0.068c-0.68,0.178-1.386,0.359-2.042,0.788
			c-0.861,0.037-1.664,0.328-2.443,0.889l-1.956,0.288c-0.53-0.123-0.956,0.074-1.324,0.31c-1.266-0.527-2.529-0.328-3.629-0.034
			c-0.874-0.031-1.75-0.095-2.624-0.159c-2.155-0.159-4.387-0.319-6.621-0.003c-0.199-0.083-0.411-0.11-0.628-0.071
			c-0.239-0.083-0.487-0.089-0.733-0.006c-1.149-0.258-2.366-0.438-3.617-0.052c-0.374-0.058-0.702,0.021-0.935,0.113
			c-0.772-0.215-1.477-0.258-2.164-0.141c-0.635-0.153-1.278-0.159-1.943-0.018c-0.432-0.169-0.852-0.123-1.186-0.04
			c-0.466-0.138-0.963-0.126-1.505,0.043c-2.305-0.475-4.448-0.708-6.538-0.708c-0.018,0-0.037,0-0.055,0
			c-0.395-0.175-0.773-0.163-1.051-0.126c-0.236-0.165-0.555-0.319-0.972-0.248c-0.487-0.205-0.993-0.211-1.493-0.025
			c-0.129-0.037-0.264-0.049-0.374-0.046c-0.861-0.647-1.907-1.15-3.262-1.563c-1.667-0.506-3.396-1.122-5.288-1.882
			c-0.181-0.074-0.362-0.159-0.546-0.248c-0.742-0.359-1.646-0.806-2.731-0.448c-1.735-0.5-3.531-0.999-5.367-1.055
			c-1.616-0.199-3.062-0.083-4.429,0.328c-0.509-0.162-0.999-0.04-1.453,0.107c-0.723-0.156-1.352,0.12-1.667,0.288
			c-3.24,0.429-6.532,1.609-10.336,3.7c-0.564,0.028-1.146,0.205-1.625,0.634c-1.658,0.113-3.17,0.674-4.635,1.22
			c-0.377,0.141-0.757,0.282-1.134,0.414c-0.469,0.163-0.944,0.294-1.422,0.426c-0.99,0.273-2.011,0.552-2.964,1.1
			c-0.365-0.025-0.705,0.068-1.012,0.282c-0.904,0.098-1.723,0.386-2.428,0.656c-2.026,0.769-4.019,1.68-5.944,2.563l-0.549,0.248
			c0.077-0.282,0.264-0.576,0.57-0.914c0.438-0.481,0.589-0.99,0.451-1.514c0.175-0.212,0.377-0.484,0.457-0.852
			c0.776-0.818,1.591-1.79,2.008-3.053c0.117-0.046,0.242-0.104,0.365-0.193c1.919-1.383,3.167-3.289,4.049-4.849
			c0.613-0.273,1.321-0.631,1.701-1.407c0.402-0.818,0.907-1.582,1.441-2.388c0.95-1.438,1.934-2.924,2.308-4.776
			c0.049-0.245,0.119-0.395,0.239-0.512c0.711-0.699,1.064-1.6,1.042-2.682c-0.003-0.3,0.159-0.616,0.349-0.978
			c0.248-0.472,0.527-1.008,0.484-1.667c-0.037-0.53,0.061-0.696,0.104-0.742c0.083-0.086,0.3-0.135,0.607-0.135
			c0.003,0,0.006,0,0.009,0c0.267,0,0.613-0.123,0.757-0.733c0.034-0.147,0.083-0.294,0.132-0.441
			c0.092-0.288,0.199-0.61,0.221-0.962c0.095-0.233,0.178-0.493,0.251-0.825c0.3-2.075,0.031-4.304-0.821-6.814
			c-1.937-5.717-4.135-12.194-5.046-18.94c-0.101-0.754-0.172-1.514-0.245-2.275c-0.144-1.56-0.297-3.169-0.739-4.819
			c-0.162-0.417-0.205-0.831-0.135-1.269c0.009-0.058,0.009-0.12,0.003-0.181c-0.04-0.414-0.058-0.831-0.077-1.248
			c-0.021-0.521-0.046-1.039-0.107-1.545c-0.074-0.619-0.095-1.245-0.113-1.867c-0.046-1.294-0.089-2.63-0.573-3.942
			c1.753-1.11,1.594-2.891,1.465-4.344l-0.037-0.454c-0.006-0.074-0.034-0.144-0.077-0.215c0.028-0.233-0.018-0.469-0.132-0.711
			c0.006-0.006,0.009-0.015,0.015-0.021c0.187-0.288,0.533-0.809,0.291-1.49c-0.012-0.043-0.024-0.086-0.043-0.129
			c-0.034-0.074,0-0.165,0.175-0.478c0.141-0.26,0.331-0.604,0.359-1.008c0.886-0.573,1.291-1.398,1.174-2.379
			c0.555-0.469,0.947-1.134,1.165-1.983c0.506-1.956,1.646-3.596,2.799-5.076c0.153-0.196,0.343-0.355,0.53-0.521
			c0.463-0.402,1.036-0.904,1.192-1.763c0.022-0.126,0.043-0.251,0.058-0.377l2.274-1.716c0.101,0.003,0.196-0.006,0.285-0.04
			c1.784-0.628,3.375-1.646,4.865-3.108c0.058-0.058,0.107-0.129,0.144-0.205c0.08-0.169,0.159-0.334,0.245-0.493
			c0.99-0.5,2.097-0.674,3.262-0.861c0.426-0.068,0.852-0.135,1.272-0.218c0.42,0.221,1.005,0.328,1.747-0.018l0.021-0.003
			c0.006,0.003,0.012,0.006,0.015,0.009c0.132,0.073,0.288,0.116,0.435,0.08c0.331-0.049,0.727,0.089,1.165,0.242
			c0.607,0.218,1.361,0.484,2.21,0.224c2.348,1.536,4,2.918,5.26,4.341c0.061,0.187,0.126,0.371,0.208,0.552
			c0.003,0.009,0.009,0.018,0.015,0.034c0.064,0.279,0.19,0.539,0.328,0.714c0.015,0.058,0.034,0.11,0.055,0.159
			c-0.018,0.423,0.046,0.84,0.193,1.248c-0.043,0.092-0.064,0.196-0.061,0.3c0.028,1.904,0.362,3.829,1.015,5.885
			c0.025,0.07,0.089,0.19,0.15,0.282c-0.024,0.114-0.046,0.212-0.083,0.27c-0.595,1.012-0.674,2.087-0.205,3.252l0.129,0.251
			c0.104,0.202,0.211,0.402,0.285,0.582l0.021,0.049l-0.058,0.426c-0.07,0.561-0.141,1.122-0.258,1.677
			c-0.254,1.238-0.07,2.271,0.567,3.142c-0.512,1.088-0.521,2.219-0.451,3.375c-0.819,1.333-0.248,2.655,0.098,3.461
			c1.29,3.001,3.268,5.56,5.177,8.037c0.414,0.539,0.831,1.079,1.238,1.622c0.086,0.398,0.303,0.699,0.466,0.926l0.144,0.208
			c1.655,2.624,4.178,4.089,6.618,5.508c0.365,0.211,0.729,0.423,1.088,0.638c0.15,0.147,0.322,0.254,0.515,0.322
			c3.124,2.507,5.974,4.034,8.945,4.797c0.352,0.264,0.662,0.313,0.987,0.331c0.68,0.294,1.358,0.598,2.035,0.898
			c3.317,1.474,6.741,3.001,10.416,3.801c0.702,0.487,1.419,0.785,2.182,0.904c1.704,0.96,3.562,1.882,5.53,2.204
			c2.213,0.769,4.408,1.769,6.517,2.967c1.379,0.788,2.835,1.346,4.328,1.661l0.907,0.506c0.484,0.527,1.039,0.923,1.579,1.309
			c0.297,0.215,0.598,0.426,0.877,0.662c4.494,3.776,6.281,7.814,5.628,12.712c-0.141,1.051-0.386,2.118-0.619,3.148
			c-0.258,1.128-0.524,2.293-0.668,3.479c-0.334,0.454-0.53,0.947-0.702,1.453l-0.389,0.325c-1.401,1.168-2.728,2.271-4.298,3.035
			c-0.34,0.015-0.662,0.129-0.963,0.34C772.657,392.217,772.507,392.282,772.375,392.386z M657.682,345.739
			C657.682,345.739,657.682,345.739,657.682,345.739C657.682,345.739,657.682,345.739,657.682,345.739
			C657.682,345.739,657.682,345.739,657.682,345.739z M680.458,415.124c0.199,0.092,0.411,0.117,0.619,0.083
			c0.159,0.058,0.34,0.08,0.509,0.064c1.349,0.726,1.916,0.711,3.127-0.193c0.92,0.392,2.054,0.874,3.203,0.211
			c0.058,0.003,0.123,0.022,0.187,0.034c0.034,0.006,0.064,0.012,0.095,0.018c0.561,0.444,1.186,0.555,1.714,0.561
			c0.475,0.567,1.045,0.613,1.569,0.503c0.101-0.037,0.196-0.086,0.288-0.144c1.563,0.264,2.851,0.72,3.933,1.389
			c0.717,0.441,1.26,0.285,1.683,0.037c0.031,0.012,0.07,0.022,0.116,0.031c0.616,0.402,1.281,0.628,1.928,0.849
			c0.705,0.239,1.37,0.466,1.796,0.803c0.5,0.604,1.183,0.754,1.821,0.42l0.959,0.147c0.095-0.021,0.285,0.086,0.521,0.239
			c0.208,0.135,0.457,0.294,0.763,0.386c0.043,0.028,0.092,0.049,0.144,0.064c0.748,0.236,1.465,0.549,2.222,0.883
			c1.343,0.585,2.728,1.192,4.304,1.343c0.576,0.052,1.064,0.368,1.628,0.733c0.472,0.307,0.959,0.622,1.545,0.806
			c0.23,0.23,0.65,0.552,1.165,0.46c0.343-0.064,0.579-0.279,0.745-0.518l4.834,1.989c0.055,0.022,0.113,0.037,0.175,0.046
			l0.288,0.034l1.346,0.883c0.239,0.144,0.463,0.322,0.684,0.5c0.576,0.457,1.223,0.969,2.136,1.076
			c0.178,0.101,0.374,0.153,0.579,0.153c0.003,0,0.006,0,0.012,0c0.748,0.521,1.579,0.592,2.32,0.656
			c0.349,0.028,0.696,0.055,0.892,0.089l0.717,0.356c0.126,0.172,0.267,0.313,0.411,0.417c0.196,0.153,0.402,0.27,0.769,0.395
			c0.107,0.015,0.208,0.025,0.31,0.012c0.448,0.264,0.886,0.54,1.327,0.812c1.165,0.729,2.37,1.48,3.685,2.048
			c0.092,0.043,0.187,0.092,0.279,0.138c0.469,0.242,1.226,0.635,2.042,0.107l0.57,0.261c0.46,0.248,0.92,0.497,1.352,0.785
			c1.26,0.849,2.652,1.29,4,1.72c0.457,0.147,0.917,0.291,1.367,0.454c0.478,0.417,1.051,0.825,1.839,0.825c0.006,0,0.009,0,0.015,0
			c0.073,0.037,0.15,0.077,0.224,0.116c0.27,0.141,0.693,0.365,1.162,0.365c0.052,0.444,0.417,0.714,1.033,1.171
			c0.086,0.064,0.184,0.107,0.288,0.126c0.273,0.061,0.543,0.037,0.785-0.052c0.083,0.086,0.19,0.159,0.328,0.205
			c0.025,0.009,0.046,0.015,0.07,0.022c0.34,0.276,0.855,0.616,1.517,0.521c0.08-0.012,0.153-0.037,0.224-0.07
			c0.144-0.08,0.175-0.095,0.592,0.411c0.42,0.5,1.091,1.156,2.143,1.235c0.095,0.055,0.199,0.098,0.31,0.123
			c0.729,0.653,1.738,1.382,3.139,1.419c0.077,0.025,0.165-0.012,0.245-0.037l0.199,0.208c0.65,0.699,1.444,1.551,2.694,1.64
			c0.27,0.42,0.684,1.104,1.747,0.987c0.368-0.031,0.601,0.04,0.641,0.08c1.021,1.459,2.483,2.271,4.601,2.563
			c0.055,0.012,0.202,0.11,0.297,0.175c0.07,0.046,0.141,0.092,0.211,0.135l0.451,0.509c0.242,0.27,0.65,0.316,0.941,0.098
			l0.089-0.064c0.055,0.021,0.11,0.04,0.165,0.055c0,0.27,0.064,0.57,0.199,0.901c0.123,0.307,0.316,0.536,0.487,0.742l0.169,0.205
			c0.083,0.11,0.196,0.196,0.328,0.242l0.739,0.261c0.003,0.043,0.009,0.077,0.015,0.101c0.08,0.797,0.457,1.775,1.753,2.149
			c0.11,0.282,0.251,0.536,0.429,0.775c0.055,0.077,0.116,0.144,0.26,0.316l0.046,0.064c-0.012,0.438,0.202,0.742,0.429,0.947
			l0.012,0.248c0.021,0.54,0.046,1.189,0.398,1.766c-0.258,0.785-0.245,1.576-0.233,2.287c0.003,0.233,0.006,0.469,0,0.702
			c-0.328,0.297-0.515,0.681-0.668,1.002c-0.055,0.116-0.11,0.23-0.172,0.334c-0.402,0.684-0.766,1.385-1.131,2.087
			c-0.441,0.852-0.901,1.735-1.413,2.553l-0.159,0.248c-0.484,0.757-1.085,1.695-0.883,2.97c-0.113,0.159-0.184,0.337-0.202,0.518
			c-1.076,1.254-1.284,2.786-1.471,4.147c-0.04,0.294-0.08,0.589-0.129,0.88c-0.006,0.031-0.012,0.061-0.018,0.095
			c-0.034,0.288-0.175,0.598-0.322,0.926c-0.264,0.595-0.589,1.321-0.392,2.192c-0.193,0.779-0.273,1.714,0.352,2.55
			c-0.024,0.077-0.049,0.15-0.07,0.227c-0.178,0.558-0.392,1.245-0.107,2.014c0.009,0.135,0.012,0.27,0.015,0.405
			c0.015,0.497,0.031,1.009,0.153,1.416c-0.018,0.092-0.021,0.187-0.006,0.279c0.043,0.248,0.12,0.484,0.227,0.705l0.632-0.31
			l-0.273,0.26l-0.331,0.043c0.15,1.137,0.466,2.213,0.935,3.197c0.021,0.181,0.046,0.362,0.083,0.524
			c0.061,0.294,0.144,0.573,0.27,0.871c0.025,0.052,0.052,0.104,0.08,0.153c0,0.012,0,0.022,0,0.034
			c-0.089,2.158,0.772,3.954,1.606,5.695c0.334,0.693,0.665,1.386,0.932,2.094c0.049,0.135,0.15,0.325,0.356,0.484
			c0.156,0.558,0.349,1.107,0.543,1.655c0.383,1.082,0.748,2.106,0.809,3.2c0.015,0.248,0.092,0.481,0.224,0.684
			c-0.018,0.123-0.028,0.26-0.015,0.408c0,0.006,0.003,0.012,0.003,0.018c-0.23,0.193-0.481,0.441-0.641,0.788
			c-0.058,0.046-0.12,0.095-0.178,0.159c-0.046,0.046-0.138,0.172-0.169,0.23c-0.239,0.113-0.527,0.184-0.831,0.257
			c-0.331,0.08-0.702,0.169-1.061,0.331c-0.451,0.009-0.818,0.181-1.125,0.337c-0.159-0.037-0.34-0.064-0.53-0.064
			c-0.156,0-0.322,0.018-0.491,0.061c-4.052-0.975-8.108-0.561-11.924-0.159l-2.462-0.12c-2.029-0.101-4.061-0.202-6.094-0.26
			c-1.036-0.028-2.014-0.257-3.185-0.552c-0.821-0.211-1.655-0.503-2.458-0.785c-1.195-0.42-2.434-0.855-3.749-1.064
			c-0.451-0.291-0.969-0.451-1.539-0.475c-3.277-1.312-6.664-2.658-10.404-2.759c-0.368-0.297-0.92-0.539-1.671-0.441l-0.328-0.067
			c-0.981-0.307-2.026-0.61-3.136-0.69c-0.233-0.107-0.481-0.135-0.711-0.08c-1.435-0.466-2.863-0.362-4.245-0.267l-0.668,0.043
			c-2.042,0.12-4.022,0.595-5.941,1.051c-1.315,0.313-2.676,0.638-4.031,0.84c-0.432,0.07-0.874,0.098-1.312,0.129
			c-0.865,0.061-1.76,0.123-2.645,0.466c-0.941-0.089-1.83,0.074-2.691,0.23c-0.218,0.037-0.435,0.074-0.653,0.107
			c-0.821-0.279-1.419-0.061-1.812,0.23c-1.796,0.352-3.427,0.641-5.07,0.662c-0.582-0.184-1.174-0.116-1.775,0.19
			c-0.08,0.003-0.156,0.003-0.233,0.003c-2.612,0-4.785-0.92-6.633-2.805c-0.549-0.975-1.248-1.805-1.802-2.425l-0.162-0.184
			c-0.828-0.923-1.609-1.796-1.815-2.961c-0.261-1.441-0.693-2.906-1.309-4.454c-0.558-1.588-1.008-3.249-1.447-4.855
			c-0.215-0.788-0.429-1.576-0.659-2.36c-0.15-0.518-0.248-1.054-0.346-1.588c-0.193-1.039-0.392-2.112-0.944-3.121
			c0.006-0.086,0.003-0.169-0.009-0.254c0.006-0.031,0.009-0.061,0.009-0.083c0.012-0.313-0.058-0.61-0.211-0.88
			c-0.003-0.006-0.009-0.018-0.018-0.031c0.061-0.757-0.083-1.447-0.435-2.054c-0.012-0.101-0.04-0.196-0.083-0.282
			c-0.009-0.408-0.193-0.727-0.371-0.96c-0.018-0.846-0.5-1.432-0.963-1.934c-0.236-0.953-0.901-1.514-1.496-2.014l-0.086-0.074
			c-0.074-0.589-0.42-1.002-0.684-1.321c-0.083-0.098-0.166-0.196-0.236-0.297c-0.423-0.616-0.904-1.192-1.383-1.766
			c-0.809-0.969-1.569-1.879-2.048-2.97c-1.033-2.372-2.887-3.973-4.524-5.383c-2.903-2.498-5.839-5.321-7.679-9.027
			c-0.169-0.337-0.331-0.681-0.497-1.024c-0.631-1.327-1.284-2.698-2.241-3.908c0.153-1.401,0.218-2.998-0.267-4.503
			c-0.451-1.407-0.659-2.489-0.677-3.501c-0.015-0.978-0.175-1.907-0.328-2.808l-0.107-0.622c-0.058-0.368-0.153-0.733-0.251-1.097
			c-0.178-0.671-0.346-1.309-0.248-1.928c0.218-0.242,0.343-0.533,0.371-0.858c0.398-0.423,0.628-0.913,0.717-1.511
			c0.251-1.759,0.515-3.219,0.907-4.491c0.417-0.687,1.051-1.088,1.836-1.539c0.003,0,0.003,0,0.003-0.003
			c0.503-0.291,1.073-0.408,1.68-0.53c0.543-0.113,1.104-0.227,1.655-0.475c2.29,0.628,3.988-0.518,5.38-1.628
			c0.815,0.408,1.566,0.086,2.084-0.141c0.181-0.077,0.362-0.159,0.567-0.205c0.408-0.107,0.818-0.187,1.232-0.27
			c1.005-0.199,2.042-0.405,3.071-0.99c0.007,0.003,0.015-0.001,0.022,0.001c0.009,0.004,0.012,0.014,0.021,0.017l0.009,0.003
			c0.074,0.025,0.15,0.034,0.224,0.034c0.031,0,0.055-0.024,0.086-0.028c0.026-0.003,0.051,0.012,0.077,0.006
			c0.276-0.067,0.503-0.196,0.684-0.3c0.104-0.064,0.208-0.123,0.285-0.147c0.331,0.058,0.625-0.055,0.776-0.159
			c0.276,0.067,0.555-0.043,0.72-0.267c0.224-0.297,0.303-0.61,0.322-0.892c0.043-0.031,0.083-0.064,0.123-0.101
			c0.506-0.003,0.972-0.159,1.367-0.46c0.08-0.021,0.156-0.046,0.23-0.08l0.699-0.049c0.123,0.123,0.297,0.242,0.536,0.276
			c0.181,0.015,0.454,0.003,0.739-0.23C680.648,415.848,680.578,415.452,680.458,415.124z M697.583,417.005
			C697.583,417.005,697.583,417.005,697.583,417.005l-0.041,0.13l-0.028-0.04L697.583,417.005z M630.797,433.642
			c-0.748,0.815-1.097,1.766-1.048,2.832c-0.711,1.165-1.165,2.449-1.349,3.826c-0.3,0.573-0.322,1.183-0.064,1.787
			c-0.101,1.937-0.031,3.948,0.212,5.974c0.334,3.182,0.159,5.594-0.521,7.715c-0.239,0.466-0.497,0.923-0.754,1.379
			c-0.659,1.18-1.343,2.397-1.753,3.764c-0.414,0.481-0.92,1.113-1.027,1.989c-0.365,0.423-0.825,0.984-0.788,1.793l-1.008,2.14
			c-0.242,0.258-0.356,0.582-0.328,0.926c-1.045,1.891-2.176,3.881-3.479,5.741l-6.866,5.082c-0.227,0.144-0.57,0.362-0.65,0.779
			c-0.04,0.187,0.034,0.509,0.144,0.665c0.025,0.037,0.046,0.07,0.064,0.104c-0.113,0.159-0.227,0.322-0.334,0.493
			c-0.144,0.098-0.291,0.208-0.426,0.34c-2.087,0.429-3.7,0.481-5.205,0.165c-1.404-0.291-2.832-0.478-4.218-0.662
			c-1.723-0.227-3.507-0.463-5.205-0.895l-0.27-0.077c-0.395-0.11-0.8-0.224-1.162-0.224c-0.294,0-0.564,0.077-0.776,0.294
			c-0.162,0.169-0.31,0.264-0.23,0.294c-0.27-0.101-0.497-0.224-0.724-0.402c-0.169-0.135-0.303-0.279-0.444-0.463
			c-0.346-0.426-0.733-0.818-1.048-1.119c-0.742-1.039-1.389-2.186-2.011-3.295c-0.291-0.518-0.582-1.036-0.886-1.545
			c-0.003-0.04-0.006-0.08-0.006-0.089c-0.015-0.153-0.031-0.307-0.049-0.398c-0.009-0.138-0.012-0.282-0.015-0.423
			c-0.003-0.23-0.009-0.46-0.046-0.766c-0.282-1.247-0.932-2.293-1.447-3.038c-0.19-0.303-0.374-0.61-0.552-0.917l-0.178-0.806
			c-0.441-2.02-0.895-4.111-1.447-6.146c-0.337-1.248-0.858-2.826-1.919-4.147c-0.067-0.751-0.527-1.266-0.861-1.588
			c-0.285-0.763-0.757-1.379-1.294-2.078c-1.864-2.437-3.307-4.497-4.54-6.483c-1.116-1.79-2.369-3.218-3.826-4.368
			c-0.024-0.052-0.052-0.11-0.083-0.184c-0.239-0.546-0.604-0.956-1.153-1.254c-0.083-0.034-0.162-0.058-0.239-0.077
			c-0.064-0.064-0.132-0.126-0.202-0.178c-0.037-0.104-0.086-0.208-0.144-0.316c-0.613-0.984-1.383-1.609-2.348-1.913
			c-4.043-1.278-7.927-2.664-11.02-5.56c-0.058-0.052-0.126-0.098-0.196-0.129c-0.031-0.012-0.061-0.025-0.092-0.037
			c-0.006-0.006-0.009-0.012-0.012-0.018c-1.661-2.599-1.533-4.221,0.561-6.946c1.248-1.628,2.903-2.584,4.653-3.596
			c0.478-0.276,0.956-0.555,1.428-0.846c1.891-1.171,4.071-1.9,6.177-2.605l1.33-0.451c0.438-0.153,0.776-0.444,1.07-0.702
			l0.086-0.07c0.267-0.095,0.536-0.187,0.806-0.276c0.659,0.074,1.104-0.144,1.419-0.353c0.178-0.025,0.359-0.037,0.552-0.04
			l0.671-0.015c0.794-0.015,1.615-0.031,2.434-0.221c0.211-0.049,0.435-0.07,0.659-0.095c0.641-0.067,1.456-0.15,2.057-0.763
			c1.162,0.656,2.225,0.107,2.986-0.392c0.69,0.297,1.306-0.113,1.753-0.493c0.763,0.441,1.355,0.349,1.756,0.135
			c0.178,0.123,0.368,0.187,0.573,0.196c0.227-0.012,0.484-0.071,0.702-0.233c0.484,0.132,0.865,0.08,1.162-0.055
			c0.012,0.006,0.025,0.012,0.037,0.015c1.557,0.616,2.976,0.123,4.23-0.316l0.27-0.092c0.064-0.022,0.126-0.055,0.181-0.095
			c1.198,0.11,2.437,0.209,3.682-0.202c0.175,0.123,0.395,0.227,0.662,0.239c0.144,0.113,0.319,0.221,0.622,0.199
			c0.353-0.037,0.754,0.04,1.18,0.12c0.782,0.144,1.753,0.331,2.762-0.227c0.389-0.221,1.048-0.211,1.404,0.009
			c1.29,0.825,2.342,0.377,3.243-0.089c1.137,1.137,1.609,1.067,3.197,0.202c0.101,0.015,0.199,0.028,0.3,0.04
			c0.245,0.031,0.549,0.067,0.653,0.147c1.45,1.1,2.986,0.757,4.025,0.398c0.782-0.273,1.542-0.34,2.458-0.212
			c0.3,0.015,0.619,0.098,0.953,0.184c0.573,0.144,1.202,0.319,1.925,0.181l0.929,0.074c1.269,0.285,2.474,0.11,3.651-0.064
			c0.377-0.058,0.754-0.113,1.116-0.15c0.377-0.049,0.766,0.043,1.192,0.126c0.644,0.12,1.361,0.254,2.127,0.046
			c0.497,0.61,1.122,0.702,1.563,0.653l2.173-0.227c0.402,0.009,0.797,0.07,1.195,0.129c0.981,0.141,2.075,0.303,3.24-0.199
			c0.472-0.202,1.343-0.067,1.756-0.003c1.297,0.218,2.492,0.202,3.642-0.031c0.117,0.101,0.236,0.175,0.35,0.233l-1.275,1.241
			c-1.677,1.631-3.353,3.265-5.061,4.862c-0.38,0.359-0.73,0.776-0.773,1.395c-1.882,1.983-3.491,4.362-4.993,7.363
			C631.797,431.085,630.948,432.198,630.797,433.642z M576.563,377.176c-0.018-0.46-0.037-0.923-0.003-1.379
			c0.022-0.297,0.144-0.616,0.273-0.953c0.239-0.619,0.53-1.383,0.248-2.256c-0.006-0.135-0.04-0.264-0.098-0.377
			c0.098-0.438,0.178-0.932,0.058-1.438c0.162,0.009,0.239-0.015,0.331-0.04c0.218-0.061,0.521-0.215,0.739-0.616
			c0.349-0.662,0.681-1.376,0.613-2.225c0.285-0.573,0.23-1.156,0.187-1.637c-0.031-0.346-0.049-0.595,0.012-0.794
			c1.162-0.788,1.312-1.953,1.245-2.973c0.417-0.417,0.656-0.849,0.797-1.435c0.212-0.855,0.386-1.723,0.558-2.587
			c0.362-1.793,0.702-3.485,1.367-5.113c0.009-0.021,0.018-0.043,0.025-0.061c0.129-0.343,0.166-0.687,0.199-0.99
			c0.043-0.401,0.077-0.656,0.23-0.837c1.192-1.419,1.223-3.078,1.251-4.54c0.009-0.451,0.018-0.901,0.037-1.22
			c0.126-0.451,0.147-0.861,0.067-1.245l0.003-0.003c0.021-0.028,0.123-0.202,0.138-0.23c0.68-1.196,1.382-2.434,1.33-4.006
			c0-0.074-0.015-0.147-0.04-0.215c-0.239-0.677-0.218-1.223,0.067-1.723c0.067-0.117,0.098-0.248,0.092-0.38
			c-0.015-0.371-0.129-0.739-0.267-0.932c-0.07-0.251-0.193-0.451-0.307-0.607c-0.083-0.509-0.26-0.975-0.432-1.422
			c-0.129-0.337-0.248-0.659-0.322-0.972c0.543-1.487-0.208-2.609-0.91-3.366c-0.487-1.913-1.591-3.574-3.445-5.196
			c-0.046-0.178-0.126-0.362-0.248-0.57c-0.248-0.34-0.555-0.598-1.009-0.8c-0.003-0.003-0.009-0.003-0.015-0.003
			c-0.006-0.009-0.009-0.015-0.015-0.021c-0.711-1.493-1.87-2.685-3.556-3.685c-0.435-0.359-0.852-0.742-1.266-1.122
			c-0.966-0.886-1.962-1.802-3.203-2.443c-0.245-0.233-0.494-0.46-0.742-0.687c-1.051-0.963-2.048-1.876-2.783-3.019
			c0.009-0.046,0.015-0.095,0.025-0.144c0.018-0.159-0.015-0.325-0.104-0.463c-0.31-0.493-0.552-1.042-0.806-1.625
			c-0.524-1.192-1.116-2.535-2.422-3.406c-0.006-0.012-0.012-0.025-0.018-0.037c-0.006-0.221-0.068-0.429-0.181-0.622l-0.003-0.184
			c-0.04-0.233-0.101-0.441-0.205-0.68c-0.083-0.159-0.159-0.325-0.211-0.435c-0.058-0.159-0.129-0.319-0.196-0.475
			c-0.046-0.104-0.092-0.212-0.135-0.319l-0.003-0.166c0-0.27-0.003-0.536-0.055-0.794c-0.322-1.655-0.549-3.605,0.227-5.649
			l0.037-0.313c0.705-0.65,1.471-1.312,2.311-1.867c0.681-0.031,1.242-0.236,1.753-0.46c0.454-0.199,0.825-0.349,1.214-0.322
			c1.094,0.159,2.078-0.064,3.029-0.276l0.723-0.153c1.11-0.215,2.235-0.448,3.344-0.401c0.987,0.049,1.977-0.077,2.921-0.193
			c1.281-0.15,2.483-0.3,3.626-0.092c0.815,0.233,1.573,0.123,2.201-0.322c0.972,0.095,1.931,0.239,2.894,0.386
			c2.06,0.309,4.187,0.628,6.404,0.457c1.183-0.095,2.372-0.144,3.565-0.196c1.183-0.046,2.366-0.098,3.543-0.19
			c0.215,0.123,0.445,0.196,0.684,0.221c0.886,0.693,1.864,0.607,2.667,0.53c0.31-0.031,0.628-0.074,0.818-0.055
			c2.563,0.684,5.156,1.573,7.715,2.642c0.279,0.282,0.592,0.444,0.932,0.481c0.337,0.313,0.702,0.352,0.978,0.356
			c0.205,0.116,0.402,0.156,0.573,0.163c0.365,0.233,0.727,0.469,1.088,0.708c1.229,0.815,2.498,1.655,3.933,2.219
			c1.79,0.702,3.706,1.441,5.698,2.023c1.358,0.398,2.698,1.07,4.218,2.118c0.426,0.294,0.846,0.595,1.266,0.898
			c0.978,0.702,1.989,1.428,3.065,2.042c0.831,0.469,1.499,1.039,2.038,1.741c0.472,0.613,0.996,1.183,1.52,1.747
			c0.466,0.506,0.932,1.009,1.352,1.545c0.392,0.503,0.837,0.932,1.269,1.346c0.567,0.543,1.101,1.058,1.456,1.677
			c0.512,0.892,1.094,1.735,1.661,2.55c0.582,0.843,1.183,1.714,1.689,2.615c0.211,0.38,0.411,0.773,0.613,1.165
			c0.567,1.11,1.15,2.253,2.042,3.234c0.159,0.898,0.451,1.741,0.733,2.563c0.086,0.251,0.172,0.503,0.255,0.757
			c-0.034,0.07-0.064,0.144-0.095,0.224c-0.469,1.272-0.169,2.486,0.147,3.403c0.889,2.566,1.413,4.926,1.6,7.216
			c0.589,7.133,1.996,13.543,4.307,19.593c0.432,1.134,0.512,2.351,0.533,3.286l0.018,1.303c0.021,1.753,0.043,3.565,0.34,5.453
			l0.316,1.251c-0.123,0.782-0.135,1.395-0.046,1.842c-0.015,0.215-0.028,0.426-0.018,0.674c0.021,0.254,0.061,0.475,0.135,0.779
			l0.021,0.055c-0.083,2.265,0.055,4.242,0.408,6.02c-0.208,0.714-0.003,1.349,0.12,1.753c0.018,0.193,0.034,0.389,0.046,0.65
			c0.012,0.077,0.028,0.153,0.049,0.261c-0.129,0.757,0.101,1.422,0.346,2.075c-0.003,0.291-0.027,0.549-0.089,0.855
			c-0.212,2.486-0.064,5.113,0.454,8.022c-0.172,0.297-0.254,0.635-0.236,0.984c0.006,0.119-0.003,0.19,0.003,0.211
			c-0.098,0.018-0.3,0.021-0.432,0.018h-0.067c-0.524-0.343-1.051-0.601-1.551-0.377c-0.589,0.251-0.696,0.938-0.757,1.309
			c-0.077,0.487,0.012,0.953,0.258,1.364c-0.104,0.558-0.046,1.051,0.181,1.493l-0.156,3.786c-0.095,0.113-0.23,0.224-0.377,0.343
			c-0.242,0.199-0.533,0.435-0.754,0.779c-0.009-0.003-0.018-0.006-0.024-0.009c-0.31-0.491-0.779-0.849-1.303-0.99
			c-1.343-0.359-2.412-1.202-3.544-2.09c-0.248-0.196-0.497-0.392-0.745-0.583c-0.978-1.214-2.244-2.118-3.865-2.756l-0.12-0.095
			c-0.12-0.095-0.239-0.187-0.349-0.291c-0.674-0.653-1.49-0.785-2.207-0.901c-0.5-0.08-0.929-0.147-1.254-0.371
			c-1.533-1.039-3.062-1.07-4.374-0.975c-0.481,0.037-0.901,0.193-1.272,0.331c-0.337,0.123-0.635,0.233-0.92,0.236
			c-0.659-0.337-1.208-0.254-1.579-0.113c-0.92,0.362-1.839,0.727-2.756,1.094l-1.778,0.705c-0.307,0.123-0.509,0.316-0.647,0.515
			c-1.122-0.316-2.167,0.04-3.209,0.441c-0.84-0.113-1.53,0.211-2.14,0.493c-0.27,0.126-0.527,0.242-0.779,0.316
			c-0.395-0.043-0.76,0.015-1.073,0.175c-0.622,0.126-1.113,0.46-1.545,0.828c-0.518,0.061-0.993,0.245-1.425,0.546
			c-0.573,0.046-0.941,0.288-1.153,0.497c-1.079,1.045-2.434,1.637-3.868,2.265l-0.3,0.132c-0.536-0.025-0.913,0.227-1.162,0.398
			c-0.086,0.058-0.214,0.144-0.245,0.153c-0.165-0.049-0.349-0.037-0.512,0.034c-0.674,0.319-1.306,0.714-1.913,1.094
			c-1.168,0.729-2.271,1.419-3.589,1.542c-0.625-0.521-1.392-1.091-2.443-1.189c-1.33-0.61-2.707-0.773-3.764-0.846
			c-0.668-0.046-1.168-0.163-1.582-0.371c-0.15-0.328-0.392-0.592-0.711-0.766c-0.089-0.049-0.273-0.098-0.297-0.067
			c-0.052-0.049-0.11-0.089-0.172-0.12c-0.037-0.064-0.083-0.126-0.141-0.181c-1.254-1.269-2.854-1.867-4.111-2.25
			c-0.068-0.018-0.135-0.028-0.205-0.028c-0.083,0.028-0.224,0.012-0.331,0.037c-0.438-0.432-0.984-0.625-1.447-0.788
			c-0.043-0.015-0.086-0.031-0.129-0.046c-0.104-0.665-0.546-1.235-1.379-1.735c-0.644-0.386-1.306-0.785-2.103-0.975
			c-0.285-0.325-0.662-0.736-1.208-0.901c-0.009-0.046-0.025-0.095-0.046-0.141c-0.61-1.407-1.615-2.471-2.587-3.497
			c-0.647-0.684-1.257-1.33-1.753-2.069c-0.27-0.398-0.668-0.895-1.26-1.192c-0.233-0.923-0.53-1.827-0.828-2.731
			c-0.57-1.738-1.11-3.378-1.232-5.297c-0.08-0.27-0.156-0.536-0.202-0.644c0-0.218-0.037-0.426-0.107-0.647
			c0-0.003-0.037-0.205-0.037-0.205c-0.021-0.098-0.049-0.184-0.083-0.264C576.63,378.862,576.596,378.007,576.563,377.176z
			 M616.839,407.888l0.014,0.042l-0.012-0.009l-0.003-0.033C616.839,407.888,616.839,407.888,616.839,407.888z M656.448,414.232
			c0.049-0.031,0.098-0.061,0.147-0.089c0.052-0.003,0.098-0.012,0.15-0.006c0.539,0.42,0.932,0.828,1.211,1.266
			c-0.19,0.159-0.392,0.334-0.583,0.54c-0.19-0.025-0.368-0.025-0.527,0c-0.058-0.058-0.12-0.113-0.181-0.166
			C656.724,415.336,656.727,414.759,656.448,414.232z M656.429,416.525L656.429,416.525L656.429,416.525L656.429,416.525z
			 M642.776,408.332c-1.888,0.322-3.844,0.656-5.775,0.684c-0.067,0-0.132,0.009-0.196,0.027c-0.156,0.049-0.316,0.077-0.475,0.095
			c-0.923-0.236-1.858-0.279-2.762-0.319l-0.438-0.022c-0.27-0.132-0.561-0.156-0.846-0.07c-0.843-0.245-1.686-0.279-2.504-0.31
			c-0.398-0.015-0.797-0.031-1.189-0.074c-0.527-0.257-1.039-0.264-1.508-0.251h-0.218c-0.72-0.086-1.291,0.126-1.885,0.26
			c-0.383,0.086-0.748,0.166-1.107,0.205c-0.034-0.034-0.067-0.064-0.104-0.095c-0.07-0.055-0.15-0.095-0.233-0.123
			c-0.38-0.113-0.745-0.12-1.067-0.126c-0.193-0.003-0.386-0.003-0.628-0.049c-0.27-0.034-0.53-0.104-0.797-0.178
			c-0.463-0.123-0.956-0.261-1.56-0.227c0.003-0.012,0.006-0.025,0.009-0.037c0.123-0.064,0.242-0.144,0.365-0.242
			c0.322-0.307,0.552-0.641,0.772-0.966l0.163-0.236c0.018-0.025,0.043-0.067,0.067-0.113l0.279-0.074
			c0.978-0.251,1.986-0.512,2.952-0.962c1.051,0.193,1.913-0.261,2.618-0.622c0.135-0.07,0.273-0.141,0.411-0.208
			c0.782-0.012,1.392-0.362,1.931-0.671c0.141-0.08,0.279-0.159,0.423-0.233c0.319,0.018,0.607-0.07,0.852-0.184
			c0.834,0.165,1.901,0.322,2.691-0.634c0.438,0.009,0.797-0.144,1.119-0.34c0.067,0.015,0.144,0.028,0.227,0.034
			c0.282,0.012,0.61,0.009,0.815,0.018l0.313,0.025c0.31,0.028,0.665,0.058,1.024-0.006c2.489-0.42,4.325-0.12,5.947,0.984
			c0.641,0.429,1.456,0.527,2.33,0.202c0.098,0.04,0.199,0.07,0.297,0.092c0.028,0.018,0.055,0.037,0.08,0.052
			c0.034,0.169,0.117,0.377,0.316,0.521c0.095,0.077,0.181,0.165,0.27,0.254c0.297,0.297,0.736,0.736,1.376,0.782
			c0.211,0.42,0.497,0.901,0.904,1.333c-0.533,0.211-1.012,0.601-1.195,1.346c-0.49-0.095-0.978-0.028-1.407,0.034
			C644.542,408.031,643.659,408.181,642.776,408.332z M663.734,393.097L663.734,393.097L663.734,393.097L663.734,393.097z
			 M677.874,478.999L677.874,478.999L677.874,478.999C677.874,478.999,677.874,479,677.874,478.999z M679.95,415.042l-0.187,0.061
			l0.07-0.113C679.873,415.002,679.913,415.02,679.95,415.042z M679.75,415.124l0.233,0.009l-0.206,0.174
			c-0.02-0.048-0.038-0.094-0.054-0.138L679.75,415.124z M670.68,412.549c-0.169-0.172-0.291-0.291-0.325-0.313
			c0.052-0.089,0.264-0.251,0.543-0.444c-0.061,0.07-0.113,0.153-0.15,0.251C670.68,412.206,670.659,412.375,670.68,412.549z
			 M589.255,582.036C589.255,582.036,589.255,582.036,589.255,582.036L589.255,582.036
			C589.255,582.036,589.255,582.036,589.255,582.036L589.255,582.036z M559.458,590.304c-0.101,0.536-0.123,1.002-0.064,1.435
			c-0.04,0.092-0.092,0.196-0.169,0.334c-0.441,1.076-0.417,2.146-0.392,3.182l0.012,0.647c0.015,5.634-0.092,10.704-1.563,15.67
			c-1.324,4.466-2.661,8.816-4.497,12.945c-0.037,0.077-0.086,0.156-0.135,0.239c-0.153,0.251-0.54,0.895-0.279,1.517
			c-0.276,0.417-0.414,0.877-0.527,1.33c-0.325,0.307-0.478,0.68-0.61,0.993l-0.009,0.024c-0.644,0.552-1.254,1.073-1.98,1.358
			c-0.046-0.147-0.123-0.294-0.221-0.445c-0.034-0.184-0.077-0.374-0.12-0.561c-0.101-0.438-0.196-0.852-0.132-1.159
			c0.258-1.235-0.144-2.256-0.497-3.157l-0.19-0.49c-1.343-3.669-3.829-6.551-6.235-9.34c-0.497-0.573-0.99-1.149-1.48-1.732
			c-0.159-0.19-0.466-0.552-0.96-0.711l-0.276-0.328c-0.291-0.343-0.583-0.69-0.889-1.024c-4.276-4.681-7.875-9.742-10.695-15.042
			c-1.441-2.701-2.713-5.539-3.783-8.436l-0.138-0.389c-0.313-0.892-0.699-2.002-1.686-2.523c-1.226-0.653-1.554-1.723-1.968-3.081
			l-0.08-0.27c-0.175-0.607-0.368-1.287-0.898-1.845l-2.133-8.163c0.123-0.727-0.11-1.361-0.3-1.879
			c-0.129-0.355-0.251-0.69-0.251-0.996c0.031-3.525-0.871-7.093-2.835-11.228c-0.883-1.87-2.152-4.279-4.117-6.354
			c-0.895-0.941-1.717-2.005-2.514-3.029l-0.365-0.469c-0.536-0.684-0.779-1.294-0.775-1.799l0.049-0.159
			c0.178-0.23,0.251-0.5,0.215-0.769c0.08-0.184,0.104-0.377,0.077-0.573c0.07-0.184,0.089-0.383,0.052-0.579
			c0.086-0.215,0.104-0.441,0.046-0.668l0.576-2.201c0.475-1.809,0.95-3.617,1.41-5.429c0.205-0.825,0.368-1.796,0.046-2.789
			l0.012-0.138c0.221-2.094,0.448-4.255,0.215-6.434c0.086-0.224,0.101-0.457,0.049-0.687c0.064-0.23,0.049-0.475-0.043-0.708
			l0.138-1.192c0.457-0.466,0.493-1.073,0.509-1.355c0.089-1.56,0.598-3.12,1.557-4.776c0.705-1.226,1.156-2.517,1.594-3.764
			l0.211-0.601c0.208-0.595,0.408-1.159,0.714-1.68c0.641-1.091,1.26-2.195,1.882-3.298c0.739-1.312,1.477-2.627,2.32-4.037
			c0.386-0.647,0.785-1.315,0.846-2.195c0.028-0.395,0.294-0.659,0.73-1.054c0.374-0.343,0.8-0.733,1.015-1.309
			c0.69-1.864,1.714-3.51,2.796-5.251c0.503-0.806,1.002-1.615,1.413-2.357l0.147-0.193c1.511-1.971,3.068-4.006,4.337-6.229
			c3.087,3.24,5.793,6.9,8.411,10.444c0.88,1.189,1.759,2.382,2.655,3.559c1.024,1.346,2.011,2.716,2.995,4.089
			c1.95,2.713,3.967,5.518,6.247,8.071c4.454,4.987,7.639,11.1,10.33,19.814c0.141,0.475,0.291,0.95,0.441,1.422l0.144,0.377
			c0.089,1.428,0.454,2.765,0.843,4c0.012,0.304,0.015,0.61-0.009,0.886c-0.236,1.566,0.129,3.007,0.481,4.399
			c0.11,0.429,0.218,0.858,0.319,1.34c0.07,0.242,0.129,0.484,0.172,0.699c0.034,0.196,0.067,0.395,0.132,0.625
			c0,0.003,0.003,0.015,0.006,0.034c-0.126,1.091,0.024,2.161,0.218,3.246c-0.162,1.251-0.034,2.471,0.089,3.654
			c0.104,0.987,0.199,1.922,0.138,2.955c0.018,0.276-0.003,0.555-0.021,0.834c-0.037,0.527-0.08,1.116,0.095,1.714
			c-0.034,0.095-0.067,0.208-0.101,0.356c-0.169,3.127-0.503,6.299-0.825,9.368c-0.214,2.035-0.429,4.071-0.601,6.109
			c-0.009,0.12,0.012,0.239,0.061,0.346c0.083,0.187,0.126,0.395,0.123,0.65c-0.159,0.763-0.337,1.612-0.113,2.517
			c-0.018,0.046-0.037,0.101-0.055,0.163c-0.349,0.647-0.371,1.321-0.331,1.83c-0.218,0.524-0.242,1.015-0.077,1.465
			c0,0.009-0.003,0.018-0.003,0.025c-0.034,0.193-0.064,0.386-0.077,0.561c-0.015,0.129-0.025,0.26-0.031,0.392
			c-0.126,0.365-0.187,0.757-0.181,1.186c-0.049,0.15-0.107,0.313-0.19,0.533c-0.463,1.79-0.607,3.307-0.451,4.776
			c0.003,0.031,0.043,0.208,0.049,0.236c0.043,0.184,0.089,0.365,0.098,0.472c0,0.006-0.021,0.303-0.021,0.31
			c-0.031,0.193-0.049,0.383-0.043,0.579c0,0.021,0.006,0.061,0.015,0.107c-0.021,0.095-0.031,0.196-0.024,0.294
			c-0.04,0.098-0.07,0.218-0.086,0.362C559.44,590.034,559.446,590.169,559.458,590.304z M533.405,691.419l-0.171-0.686
			c-0.181,0.006-0.368,0-0.696,0.058c-0.095-0.009-0.19-0.009-0.291,0.009c-0.095-0.025-0.248-0.031-0.352-0.037
			c-0.141,0.012-0.285,0.034-0.429,0.068c-0.533-0.04-1.015,0-1.477,0.113c-0.08-0.025-0.175-0.061-0.307-0.12
			c-1.039-0.291-2.149-0.135-3.212,0.015l-0.677,0.092c-5.839,0.705-11.069,1.229-15.924,0.435
			c-4.362-0.714-8.601-1.456-12.491-2.691c-0.067-0.021-0.132-0.055-0.196-0.089c-0.187-0.092-0.506-0.248-0.886-0.248
			c-0.199,0-0.42,0.043-0.644,0.162c-0.383-0.211-0.818-0.288-1.251-0.34c-0.248-0.233-0.57-0.349-0.907-0.451
			c-0.16-0.196-0.294-0.385-0.427-0.576c0.236-0.159,0.457-0.342,0.697-0.497c0.914-0.165,1.554-0.714,2.124-1.202l0.092-0.077
			c0.086-0.02,0.155-0.1,0.236-0.136c0.792-0.133,1.55-0.458,2.277-0.778l0.546-0.242c4.025-1.714,7.489-4.423,10.836-7.044
			c0.69-0.543,1.379-1.082,2.072-1.612c0.334-0.254,0.665-0.546,0.861-0.95l0.368-0.285c0.444-0.34,0.889-0.681,1.324-1.036
			c0.579-0.472,1.172-0.91,1.756-1.37l0.175-0.101c1.26-0.693,2.517-1.386,3.773-2.087c0.478-0.267,1.018-0.46,1.588-0.665
			c1.358-0.49,2.9-1.045,3.718-2.771c0.359-0.753,1.52-1.775,2.846-2.802c1.302-0.79,2.607-1.563,3.919-2.287
			c3.117-1.72,6.321-3.289,9.521-4.656l0.438-0.184c0.984-0.405,2.1-0.864,2.771-1.778c0.99-1.346,2.274-1.83,3.77-2.394l0.297-0.11
			c0.65-0.236,1.383-0.5,2.023-1.061l8.987-3.074c0.677,0.07,1.364-0.242,1.95-0.494c0.414-0.175,0.803-0.343,1.153-0.38
			c3.611-0.402,7.455-1.686,12.096-4.046c3.105-1.579,5.361-3.013,7.317-4.65c1.137-0.953,2.376-1.855,3.574-2.725l0.644-0.466
			c0.837-0.613,1.542-0.938,2.21-1.024l0.098,0.018c0.202,0.126,0.463,0.184,0.776,0.113c0.178,0.046,0.371,0.049,0.573,0
			c0.166,0.043,0.362,0.052,0.595-0.018c0.211,0.061,0.441,0.04,0.674-0.04l2.201,0.282c1.769,0.23,3.54,0.46,5.318,0.674
			c0.815,0.092,1.781,0.132,2.851-0.3l0.181-0.003c2.121-0.049,4.313-0.098,6.606-0.589c0.184,0.049,0.423,0.058,0.696-0.04
			c0.199,0.037,0.441,0.012,0.714-0.126l1.202-0.015c0.438,0.377,1.042,0.331,1.34,0.322c1.612-0.117,3.096,0.184,4.604,0.883
			c1.137,0.527,2.385,0.803,3.593,1.067l0.589,0.129c0.57,0.126,1.11,0.242,1.573,0.463c1.015,0.484,2.048,0.944,3.078,1.407
			c1.202,0.536,2.4,1.073,3.682,1.695c0.576,0.282,1.214,0.579,2.14,0.552c0.346-0.052,0.512,0.126,0.834,0.493
			c0.291,0.325,0.65,0.73,1.266,0.877c1.772,0.423,3.262,1.192,4.837,2.005c0.739,0.38,1.48,0.76,2.136,1.042l0.172,0.12
			c1.683,1.156,3.415,2.348,5.386,3.277c-3.991,3.357-8.331,6.391-12.534,9.328c-1.404,0.981-2.811,1.965-4.206,2.961
			c-1.597,1.14-3.219,2.25-4.837,3.36c-3.191,2.186-6.492,4.448-9.576,6.922c-6.088,4.886-13.089,8.693-22.695,12.344
			c-0.512,0.187-1.027,0.389-1.539,0.589l-0.487,0.202c-1.517,0.267-2.989,0.791-4.215,1.281c-0.356,0.055-0.714,0.101-1.027,0.116
			c-0.049,0-0.095-0.003-0.141-0.003c-1.505,0-3.001,0.503-4.451,0.987c-0.472,0.159-0.944,0.319-1.453,0.469
			c-0.267,0.098-0.536,0.184-0.782,0.258c-0.205,0.055-0.405,0.107-0.653,0.196l0.009,0.021c-0.003,0-0.009,0-0.012,0
			c-1.14,0-2.296,0.282-3.476,0.607c-0.006,0-0.012,0-0.018,0c-1.254,0-2.535,0.27-3.773,0.53c-1.051,0.221-2.044,0.429-3.096,0.494
			c-0.294,0.055-0.585,0.07-0.877,0.086c-0.539,0.028-1.14,0.061-1.781,0.304c-0.095-0.022-0.208-0.04-0.359-0.058
			c-3.2,0.224-6.419,0.297-9.53,0.365c-2.066,0.046-4.132,0.092-6.213,0.181c-0.095,0.003-0.187,0.028-0.273,0.07
			c-0.242,0.12-0.49,0.193-0.794,0.227c-0.763-0.064-1.615-0.129-2.575,0.205c-0.046-0.012-0.095-0.025-0.15-0.034
			c-0.61-0.254-1.281-0.196-1.842-0.095c-0.576-0.165-1.122-0.101-1.533,0.107c-0.126-0.006-0.251-0.012-0.371-0.012
			c-0.202,0-0.392,0.009-0.595,0.028c-0.356-0.073-0.751-0.083-1.189-0.028c-0.144-0.028-0.3-0.061-0.515-0.113
			c-1.756-0.224-3.289-0.178-4.828,0.15c-0.024,0.003-0.193,0.058-0.218,0.064c-0.215,0.07-0.429,0.144-0.53,0.169
			c-0.068,0-0.138,0.006-0.175,0.015L533.405,691.419C533.406,691.419,533.406,691.419,533.405,691.419z M578.402,688.084
			l-0.227-0.291v-0.267L578.402,688.084z"/>
		<path style="fill:none;stroke:#000000;stroke-width:2;stroke-miterlimit:10;" d="M778.624,712.239h-353.6
			c-7.111,0-12.876-5.765-12.876-12.876V295.427c0-7.111,5.765-12.876,12.876-12.876h353.6c7.111,0,12.876,5.765,12.876,12.876
			v403.936C791.5,706.474,785.735,712.239,778.624,712.239z"/>
		<path d="M684.876,282.551H518.772l0,0c0-8.921,7.232-16.152,16.152-16.152h133.8C677.645,266.398,684.876,273.63,684.876,282.551
			L684.876,282.551z"/>
		
			<rect x="573.289" y="235.725" style="fill:none;stroke:#000000;stroke-width:6;stroke-linecap:round;stroke-linejoin:round;stroke-miterlimit:10;" width="57.071" height="35.01"/>
		
			<rect x="573.289" y="162.806" style="fill:none;stroke:#000000;stroke-width:6;stroke-linecap:round;stroke-linejoin:round;stroke-miterlimit:10;" width="57.071" height="47.741"/>
		
			<rect x="566.994" y="223.136" style="fill:none;stroke:#000000;stroke-width:6;stroke-linecap:round;stroke-linejoin:round;stroke-miterlimit:10;" width="69.66" height="12.589"/>
		
			<rect x="573.289" y="210.547" style="fill:none;stroke:#000000;stroke-width:6;stroke-linecap:round;stroke-linejoin:round;stroke-miterlimit:10;" width="57.071" height="12.589"/>
		<path style="fill:none;stroke:#000000;stroke-width:2;stroke-miterlimit:10;" d="M658.241,254.456H546.993
			c-2.789,0-5.05-2.261-5.05-5.05V134.764c0-2.789,2.261-5.05,5.05-5.05h111.248c2.789,0,5.05,2.261,5.05,5.05v114.642
			C663.291,252.195,661.03,254.456,658.241,254.456z"/>
		<g>
			<path d="M706.882,565.059H497.305c-2.802,0-5.074-2.272-5.074-5.074V438.69c0-2.802,2.272-5.074,5.074-5.074h209.578
				c2.802,0,5.074,2.272,5.074,5.074v121.294C711.956,562.787,709.685,565.059,706.882,565.059z"/>
			<path style="fill:none;stroke:#F5F4F3;stroke-width:1.5427;stroke-miterlimit:10;" d="M694.913,551.075H509.274
				c-2.802,0-5.074-2.272-5.074-5.074v-94.059c0-2.803,2.272-5.074,5.074-5.074h185.639c2.802,0,5.074,2.272,5.074,5.074v94.059
				C699.987,548.804,697.715,551.075,694.913,551.075z"/>
		</g>
		<path d="M460.516,669.202h37.827c0.829-0.563,1.66-1.123,2.498-1.677c2.127-1.413,4.325-2.872,6.373-4.442
			c0.067-0.051,0.137-0.108,0.205-0.159h-46.902c-3.856,0-6.995-2.636-6.995-5.873v-325.04c0-3.237,3.139-5.873,6.995-5.873h45.652
			v-6.278h-45.652c-7.32,0-13.273,5.45-13.273,12.151v325.04C447.243,663.752,453.196,669.202,460.516,669.202z"/>
		<g>
			<path d="M750.127,405.395v25.635c0.143,0.025,0.281,0.06,0.395,0.096l0.34,0.156c0.196,0.098,0.395,0.196,0.601,0.279
				c0.463,0.181,0.742,0.466,0.818,0.843c0.049,0.242,0,0.457-0.08,0.634l0.029,0.04h4.173v-27.683h-3.176h-1.753H750.127z"/>
			<path d="M756.405,657.051V516.81c-0.295-0.084-0.604-0.187-0.91-0.368c-0.132,0.015-0.27,0.021-0.408,0.003
				c-0.074,0.028-0.15,0.046-0.227,0.052c-0.251,0.11-0.518,0.12-0.763,0.046c-0.665,0.135-1.3,0.135-1.94,0.12
				c-0.285,0.003-0.564,0-0.837,0.003c-0.328,0.003-0.631,0.018-0.935,0.034c-0.084,0.005-0.172-0.001-0.258,0.004v140.348
				c0,3.237-3.139,5.873-6.995,5.873H634.335c-1.386,0.946-2.835,1.915-4.368,2.915c-0.72,0.47-1.448,0.97-2.176,1.472v1.891
				h115.342C750.452,669.202,756.405,663.752,756.405,657.051z"/>
			<path d="M719.605,321.133c0.264,0.858,0.224,1.75-0.116,2.719v2.802c0.001,0.012,0.004,0.024,0.005,0.036h23.638
				c3.856,0,6.995,2.636,6.995,5.873v9.381c0.11,0.076,0.228,0.153,0.325,0.225c0.261,0.089,0.512,0.208,0.763,0.331
				c0.395,0.196,0.763,0.328,1.094,0.356h4.095v-10.293c0-6.701-5.953-12.151-13.273-12.151h-23.484
				C719.668,320.675,719.651,320.926,719.605,321.133z"/>
			<path d="M574.917,692.514c-1.177,0.279-2.345,0.411-3.476,0.543c-0.705,0.08-1.41,0.159-2.121,0.276l-0.92,0.153
				c-2.903,0.478-5.901,0.972-8.816,1.104c-0.687,0.028-1.346,0.012-2.005-0.003c-0.518-0.012-1.027-0.028-1.56-0.015
				c-0.558,0.294-1.131,0.368-1.695,0.233c-0.877,0.245-1.606,0.147-2.259,0.061c-0.141-0.021-0.282-0.04-0.423-0.055
				c-0.334,0.172-0.607,0.172-0.821,0.098c-0.343,0.117-0.831,0.196-1.284-0.034c-1.395,0.009-2.783,0-4.169-0.003
				c-5.022-0.018-10.175-0.009-15.403,0.357v0.118h244.75v-3.139H576.37C575.885,692.311,575.402,692.398,574.917,692.514z"/>
		</g>
	</g>
</g>
<g id="Text">
	<text transform="matrix(1.03 0 0 1 306.0571 896.4893)" style="font-family:'CormorantGaramond-Medium'; font-size:176px; letter-spacing:2.913;">RIHA</text>
	
		<text transform="matrix(1.05 0 0 1 350.4897 991.1221)" style="font-family:'CormorantGaramond-Medium'; font-size:103px; letter-spacing:1.905;">ORIGINAL</text>
	<text transform="matrix(1 0 0 1 380.7485 1068.7715)" style="font-family:'Asap-Regular'; font-size:34px; letter-spacing:3;">PREMIUM BEAUTY COLLECTION</text>
	<g>
		
			<text transform="matrix(1.03 0 0 1 520.6802 508.1992)" style="fill:#F5F4F3; font-family:'EBGaramond-Regular'; font-size:31px; letter-spacing:-0.971;">BEAUTY</text>
	</g>
</g>
</svg>
